BhuTukaExtendedOne-Regular.ufo
<glyph name="percent" format="1">
  <advance width="948"/>
  <unicode hex="0025"/>
  <outline>
    <contour>
      <point x="782" y="480" type="line"/>
      <point x="766" y="495" type="line"/>
      <point x="165" y="-11" type="line"/>
      <point x="181" y="-26" type="line"/>
    </contour>
    <contour>
      <point x="306" y="230"/>
      <point x="373" y="279"/>
      <point x="373" y="356" type="curve" smooth="yes"/>
      <point x="373" y="430"/>
      <point x="306" y="482"/>
      <point x="217" y="482" type="curve" smooth="yes"/>
      <point x="127" y="482"/>
      <point x="60" y="434"/>
      <point x="60" y="357" type="curve" smooth="yes"/>
      <point x="60" y="283"/>
      <point x="127" y="230"/>
      <point x="217" y="230" type="curve" smooth="yes"/>
    </contour>
    <contour>
      <point x="139" y="252"/>
      <point x="84" y="297"/>
      <point x="84" y="357" type="curve" smooth="yes"/>
      <point x="84" y="419"/>
      <point x="139" y="460"/>
      <point x="217" y="460" type="curve" smooth="yes"/>
      <point x="295" y="460"/>
      <point x="350" y="416"/>
      <point x="350" y="356" type="curve" smooth="yes"/>
      <point x="350" y="294"/>
      <point x="295" y="252"/>
      <point x="217" y="252" type="curve" smooth="yes"/>
    </contour>
    <contour>
      <point x="821" y="-13"/>
      <point x="888" y="34"/>
      <point x="888" y="113" type="curve" smooth="yes"/>
      <point x="888" y="186"/>
      <point x="821" y="239"/>
      <point x="732" y="239" type="curve" smooth="yes"/>
      <point x="642" y="239"/>
      <point x="575" y="190"/>
      <point x="575" y="113" type="curve" smooth="yes"/>
      <point x="575" y="39"/>
      <point x="642" y="-13"/>
      <point x="732" y="-13" type="curve" smooth="yes"/>
    </contour>
    <contour>
      <point x="653" y="9"/>
      <point x="598" y="53"/>
      <point x="598" y="113" type="curve" smooth="yes"/>
      <point x="598" y="175"/>
      <point x="653" y="216"/>
      <point x="732" y="216" type="curve" smooth="yes"/>
      <point x="809" y="216"/>
      <point x="864" y="173"/>
      <point x="864" y="113" type="curve" smooth="yes"/>
      <point x="864" y="50"/>
      <point x="809" y="9"/>
      <point x="732" y="9" type="curve" smooth="yes"/>
    </contour>
  </outline>
</glyph>
<glyph name="parenright" format="1">
  <advance width="404"/>
  <unicode hex="0029"/>
  <outline>
    <contour>
      <point x="158" y="-45"/>
      <point x="309" y="68"/>
      <point x="309" y="265" type="curve"/>
      <point x="309" y="461"/>
      <point x="158" y="575"/>
      <point x="75" y="620" type="curve"/>
      <point x="66" y="601" type="line"/>
      <point x="140" y="556"/>
      <point x="284" y="453"/>
      <point x="284" y="265" type="curve"/>
      <point x="284" y="75"/>
      <point x="140" y="-27"/>
      <point x="66" y="-71" type="curve"/>
      <point x="75" y="-91" type="line"/>
    </contour>
  </outline>
</glyph>
<glyph name="zero" format="1">
  <advance width="774"/>
  <unicode hex="0030"/>
  <outline>
    <contour>
      <point x="561" y="-11"/>
      <point x="714" y="74"/>
      <point x="714" y="234" type="curve"/>
      <point x="714" y="389"/>
      <point x="561" y="480"/>
      <point x="387" y="480" type="curve"/>
      <point x="213" y="480"/>
      <point x="60" y="389"/>
      <point x="60" y="234" type="curve"/>
      <point x="60" y="74"/>
      <point x="213" y="-11"/>
      <point x="387" y="-11" type="curve"/>
    </contour>
    <contour>
      <point x="225" y="12"/>
      <point x="86" y="91"/>
      <point x="86" y="234" type="curve"/>
      <point x="86" y="371"/>
      <point x="225" y="457"/>
      <point x="387" y="457" type="curve"/>
      <point x="550" y="457"/>
      <point x="689" y="371"/>
      <point x="689" y="234" type="curve"/>
      <point x="689" y="91"/>
      <point x="550" y="12"/>
      <point x="387" y="12" type="curve"/>
    </contour>
  </outline>
</glyph>
<glyph name="equal" format="1">
  <advance width="638"/>
  <unicode hex="003D"/>
  <outline>
    <contour>
      <point x="70" y="347" type="line"/>
      <point x="70" y="324" type="line"/>
      <point x="568" y="324" type="line"/>
      <point x="568" y="347" type="line"/>
    </contour>
    <contour>
      <point x="70" y="145" type="line"/>
      <point x="70" y="123" type="line"/>
      <point x="568" y="123" type="line"/>
      <point x="568" y="145" type="line"/>
    </contour>
  </outline>
</glyph>
<glyph name="at" format="1">
  <advance width="929"/>
  <unicode hex="0040"/>
  <outline>
    <contour>
      <point x="533" y="-140"/>
      <point x="613" y="-100"/>
      <point x="662" y="-73" type="curve"/>
      <point x="652" y="-52" type="line"/>
      <point x="603" y="-78"/>
      <point x="530" y="-116"/>
      <point x="400" y="-116" type="curve" smooth="yes"/>
      <point x="241" y="-116"/>
      <point x="85" y="-28"/>
      <point x="85" y="164" type="curve" smooth="yes"/>
      <point x="85" y="339"/>
      <point x="245" y="482"/>
      <point x="478" y="482" type="curve" smooth="yes"/>
      <point x="704" y="482"/>
      <point x="844" y="351"/>
      <point x="844" y="200" type="curve" smooth="yes"/>
      <point x="844" y="104"/>
      <point x="789" y="43"/>
      <point x="732" y="43" type="curve" smooth="yes"/>
      <point x="680" y="43"/>
      <point x="655" y="78"/>
      <point x="655" y="120" type="curve" smooth="yes"/>
      <point x="655" y="198" type="line" smooth="yes"/>
      <point x="655" y="275"/>
      <point x="603" y="325"/>
      <point x="485" y="325" type="curve" smooth="yes"/>
      <point x="411" y="325"/>
      <point x="337" y="309"/>
      <point x="264" y="285" type="curve"/>
      <point x="264" y="260" type="line"/>
      <point x="337" y="284"/>
      <point x="410" y="303"/>
      <point x="485" y="303" type="curve" smooth="yes"/>
      <point x="586" y="303"/>
      <point x="633" y="256"/>
      <point x="633" y="198" type="curve" smooth="yes"/>
      <point x="633" y="120" type="line" smooth="yes"/>
      <point x="633" y="66"/>
      <point x="663" y="20"/>
      <point x="732" y="20" type="curve" smooth="yes"/>
      <point x="796" y="20"/>
      <point x="869" y="88"/>
      <point x="869" y="200" type="curve" smooth="yes"/>
      <point x="869" y="372"/>
      <point x="716" y="506"/>
      <point x="478" y="506" type="curve" smooth="yes"/>
      <point x="234" y="506"/>
      <point x="60" y="357"/>
      <point x="60" y="164" type="curve" smooth="yes"/>
      <point x="60" y="-42"/>
      <point x="231" y="-140"/>
      <point x="400" y="-140" type="curve" smooth="yes"/>
    </contour>
    <contour>
      <point x="478" y="20"/>
      <point x="563" y="42"/>
      <point x="643" y="82" type="curve"/>
      <point x="643" y="104" type="line"/>
      <point x="561" y="66"/>
      <point x="477" y="43"/>
      <point x="397" y="43" type="curve" smooth="yes"/>
      <point x="331" y="43"/>
      <point x="271" y="62"/>
      <point x="271" y="105" type="curve" smooth="yes"/>
      <point x="271" y="157"/>
      <point x="346" y="173"/>
      <point x="429" y="173" type="curve" smooth="yes"/>
      <point x="506" y="173"/>
      <point x="580" y="160"/>
      <point x="643" y="151" type="curve"/>
      <point x="643" y="174" type="line"/>
      <point x="580" y="184"/>
      <point x="507" y="195"/>
      <point x="432" y="195" type="curve" smooth="yes"/>
      <point x="322" y="195"/>
      <point x="247" y="169"/>
      <point x="247" y="105" type="curve" smooth="yes"/>
      <point x="247" y="49"/>
      <point x="310" y="20"/>
      <point x="397" y="20" type="curve" smooth="yes"/>
    </contour>
  </outline>
</glyph>
<glyph name="F" format="1">
  <advance width="889"/>
  <unicode hex="0046"/>
  <outline>
    <contour>
      <point x="814" y="336" type="line"/>
      <point x="814" y="520" type="line"/>
      <point x="56" y="520" type="line"/>
      <point x="56" y="496" type="line"/>
      <point x="790" y="496" type="line"/>
      <point x="790" y="336" type="line"/>
    </contour>
    <contour>
      <point x="457" y="-1" type="line"/>
      <point x="457" y="22" type="line"/>
      <point x="56" y="22" type="line"/>
      <point x="56" y="-1" type="line"/>
    </contour>
    <contour>
      <point x="264" y="12" type="line"/>
      <point x="264" y="507" type="line"/>
      <point x="239" y="507" type="line"/>
      <point x="239" y="12" type="line"/>
    </contour>
    <contour>
      <point x="555" y="240" type="line"/>
      <point x="555" y="263" type="line"/>
      <point x="261" y="263" type="line"/>
      <point x="261" y="240" type="line"/>
    </contour>
    <contour>
      <point x="568" y="131" type="line"/>
      <point x="568" y="371" type="line"/>
      <point x="543" y="371" type="line"/>
      <point x="543" y="131" type="line"/>
    </contour>
    <contour>
      <point x="451" y="656" type="move" name="top"/>
    </contour>
    <contour>
      <point x="451" y="165" type="move" name="bottom"/>
    </contour>
  </outline>
</glyph>
<glyph name="K" format="1">
  <advance width="1000"/>
  <unicode hex="004B"/>
  <outline>
    <contour>
      <point x="827" y="507" type="line"/>
      <point x="787" y="507" type="line"/>
      <point x="251" y="155" type="line"/>
      <point x="251" y="129" type="line"/>
    </contour>
    <contour>
      <point x="446" y="-1" type="line" smooth="yes"/>
      <point x="446" y="22" type="line" smooth="yes"/>
      <point x="56" y="22" type="line" smooth="yes"/>
      <point x="56" y="-1" type="line" smooth="yes"/>
    </contour>
    <contour>
      <point x="264" y="12" type="line" smooth="yes"/>
      <point x="264" y="507" type="line" smooth="yes"/>
      <point x="239" y="507" type="line" smooth="yes"/>
      <point x="239" y="12" type="line" smooth="yes"/>
    </contour>
    <contour>
      <point x="964" y="-1" type="line" smooth="yes"/>
      <point x="964" y="22" type="line" smooth="yes"/>
      <point x="612" y="22" type="line" smooth="yes"/>
      <point x="612" y="-1" type="line" smooth="yes"/>
    </contour>
    <contour>
      <point x="833" y="9" type="line"/>
      <point x="483" y="294" type="line"/>
      <point x="467" y="278" type="line"/>
      <point x="797" y="9" type="line"/>
    </contour>
    <contour>
      <point x="446" y="496" type="line" smooth="yes"/>
      <point x="446" y="520" type="line" smooth="yes"/>
      <point x="56" y="520" type="line" smooth="yes"/>
      <point x="56" y="496" type="line" smooth="yes"/>
    </contour>
    <contour>
      <point x="955" y="496" type="line" smooth="yes"/>
      <point x="955" y="520" type="line" smooth="yes"/>
      <point x="602" y="520" type="line" smooth="yes"/>
      <point x="602" y="496" type="line" smooth="yes"/>
    </contour>
    <contour>
      <point x="527" y="686" type="move" name="top"/>
    </contour>
    <contour>
      <point x="527" y="165" type="move" name="bottom"/>
    </contour>
  </outline>
</glyph>
<glyph name="M" format="1">
  <advance width="1241"/>
  <unicode hex="004D"/>
  <outline>
    <contour>
      <point x="623" y="-12" type="line"/>
      <point x="632" y="13" type="line"/>
      <point x="264" y="520" type="line"/>
      <point x="233" y="520" type="line"/>
      <point x="618" y="-12" type="line"/>
    </contour>
    <contour>
      <point x="415" y="-1" type="line"/>
      <point x="415" y="22" type="line"/>
      <point x="56" y="22" type="line"/>
      <point x="56" y="-1" type="line"/>
    </contour>
    <contour>
      <point x="264" y="10" type="line"/>
      <point x="264" y="453" type="line"/>
      <point x="264" y="475"/>
      <point x="264" y="499"/>
      <point x="264" y="520" type="curve"/>
      <point x="239" y="520" type="line"/>
      <point x="239" y="10" type="line"/>
    </contour>
    <contour>
      <point x="264" y="496" type="line"/>
      <point x="264" y="520" type="line"/>
      <point x="56" y="520" type="line"/>
      <point x="56" y="496" type="line"/>
    </contour>
    <contour>
      <point x="1185" y="-1" type="line"/>
      <point x="1185" y="22" type="line"/>
      <point x="827" y="22" type="line"/>
      <point x="827" y="-1" type="line"/>
    </contour>
    <contour>
      <point x="624" y="-12" type="line"/>
      <point x="1009" y="520" type="line"/>
      <point x="977" y="520" type="line"/>
      <point x="613" y="13" type="line"/>
      <point x="619" y="-12" type="line"/>
    </contour>
    <contour>
      <point x="1002" y="10" type="line"/>
      <point x="1002" y="520" type="line"/>
      <point x="977" y="520" type="line"/>
      <point x="977" y="499"/>
      <point x="977" y="475"/>
      <point x="977" y="453" type="curve"/>
      <point x="977" y="10" type="line"/>
    </contour>
    <contour>
      <point x="1185" y="496" type="line"/>
      <point x="1185" y="520" type="line"/>
      <point x="977" y="520" type="line"/>
      <point x="977" y="496" type="line"/>
    </contour>
    <contour>
      <point x="621" y="656" type="move" name="top"/>
    </contour>
    <contour>
      <point x="621" y="145" type="move" name="bottom"/>
    </contour>
  </outline>
</glyph>
<glyph name="P" format="1">
  <advance width="937"/>
  <unicode hex="0050"/>
  <outline>
    <contour>
      <point x="696" y="213" type="line" smooth="yes"/>
      <point x="809" y="213"/>
      <point x="877" y="278"/>
      <point x="877" y="365" type="curve" smooth="yes"/>
      <point x="877" y="461"/>
      <point x="807" y="520"/>
      <point x="696" y="520" type="curve" smooth="yes"/>
      <point x="56" y="520" type="line"/>
      <point x="56" y="496" type="line"/>
      <point x="703" y="496" type="line" smooth="yes"/>
      <point x="793" y="496"/>
      <point x="852" y="445"/>
      <point x="852" y="365" type="curve" smooth="yes"/>
      <point x="852" y="286"/>
      <point x="789" y="237"/>
      <point x="703" y="237" type="curve" smooth="yes"/>
      <point x="252" y="237" type="line"/>
      <point x="252" y="213" type="line"/>
    </contour>
    <contour>
      <point x="457" y="-1" type="line"/>
      <point x="457" y="22" type="line"/>
      <point x="56" y="22" type="line"/>
      <point x="56" y="-1" type="line"/>
    </contour>
    <contour>
      <point x="264" y="12" type="line"/>
      <point x="264" y="507" type="line"/>
      <point x="239" y="507" type="line"/>
      <point x="239" y="12" type="line"/>
    </contour>
    <contour>
      <point x="463" y="686" type="move" name="top"/>
    </contour>
    <contour>
      <point x="463" y="165" type="move" name="bottom"/>
    </contour>
  </outline>
</glyph>
<glyph name="V" format="1">
  <advance width="939"/>
  <unicode hex="0056"/>
  <outline>
    <contour>
      <point x="-5" y="520" type="line"/>
      <point x="-5" y="496" type="line"/>
      <point x="333" y="496" type="line"/>
      <point x="333" y="520" type="line"/>
    </contour>
    <contour>
      <point x="606" y="520" type="line"/>
      <point x="606" y="496" type="line"/>
      <point x="944" y="496" type="line"/>
      <point x="944" y="520" type="line"/>
    </contour>
    <contour>
      <point x="473" y="-11" type="line"/>
      <point x="789" y="507" type="line"/>
      <point x="761" y="507" type="line"/>
      <point x="470" y="29" type="line"/>
      <point x="182" y="507" type="line"/>
      <point x="150" y="507" type="line"/>
      <point x="467" y="-11" type="line"/>
    </contour>
    <contour>
      <point x="470" y="656" type="move" name="top"/>
    </contour>
    <contour>
      <point x="470" y="155" type="move" name="bottom"/>
    </contour>
  </outline>
</glyph>
<glyph name="k" format="1">
  <advance width="892"/>
  <unicode hex="006B"/>
  <outline>
    <contour>
      <point x="647" y="133"/>
      <point x="758" y="176"/>
      <point x="758" y="263" type="curve" smooth="yes"/>
      <point x="758" y="328"/>
      <point x="692" y="366"/>
      <point x="584" y="366" type="curve" smooth="yes"/>
      <point x="467" y="366"/>
      <point x="340" y="310"/>
      <point x="224" y="231" type="curve"/>
      <point x="224" y="210" type="line"/>
      <point x="340" y="287"/>
      <point x="463" y="343"/>
      <point x="578" y="343" type="curve" smooth="yes"/>
      <point x="673" y="343"/>
      <point x="733" y="316"/>
      <point x="733" y="261" type="curve" smooth="yes"/>
      <point x="733" y="193"/>
      <point x="625" y="157"/>
      <point x="473" y="157" type="curve" smooth="yes"/>
      <point x="382" y="157"/>
      <point x="267" y="170"/>
      <point x="223" y="176" type="curve"/>
      <point x="220" y="159" type="line"/>
      <point x="267" y="150"/>
      <point x="367" y="133"/>
      <point x="470" y="133" type="curve" smooth="yes"/>
    </contour>
    <contour>
      <point x="420" y="-1" type="line"/>
      <point x="420" y="22" type="line"/>
      <point x="30" y="22" type="line"/>
      <point x="30" y="-1" type="line"/>
    </contour>
    <contour>
      <point x="237" y="-1" type="line"/>
      <point x="237" y="520" type="line"/>
      <point x="212" y="520" type="line"/>
      <point x="212" y="-1" type="line"/>
    </contour>
    <contour>
      <point x="237" y="496" type="line"/>
      <point x="237" y="520" type="line"/>
      <point x="30" y="520" type="line"/>
      <point x="30" y="496" type="line"/>
    </contour>
    <contour>
      <point x="766" y="-21"/>
      <point x="819" y="30"/>
      <point x="832" y="98" type="curve"/>
      <point x="811" y="103" type="line"/>
      <point x="797" y="37"/>
      <point x="746" y="2"/>
      <point x="687" y="2" type="curve" smooth="yes"/>
      <point x="605" y="2"/>
      <point x="555" y="58"/>
      <point x="483" y="150" type="curve"/>
      <point x="458" y="150" type="line"/>
      <point x="521" y="56"/>
      <point x="594" y="-21"/>
      <point x="686" y="-21" type="curve" smooth="yes"/>
    </contour>
    <contour>
      <point x="475" y="532" type="move" name="top"/>
    </contour>
    <contour>
      <point x="475" y="165" type="move" name="bottom"/>
    </contour>
  </outline>
</glyph>
<glyph name="l" format="1">
  <advance width="450"/>
  <unicode hex="006C"/>
  <outline>
    <contour>
      <point x="237" y="-1" type="line"/>
      <point x="237" y="520" type="line"/>
      <point x="212" y="520" type="line"/>
      <point x="212" y="-1" type="line"/>
    </contour>
    <contour>
      <point x="420" y="-1" type="line"/>
      <point x="420" y="22" type="line"/>
      <point x="30" y="22" type="line"/>
      <point x="30" y="-1" type="line"/>
    </contour>
    <contour>
      <point x="237" y="496" type="line"/>
      <point x="237" y="520" type="line"/>
      <point x="30" y="520" type="line"/>
      <point x="30" y="496" type="line"/>
    </contour>
    <contour>
      <point x="212" y="165" type="move" name="bottom"/>
    </contour>
    <contour>
      <point x="212" y="686" type="move" name="top"/>
    </contour>
    <contour>
      <point x="281" y="502" type="move" name="topright"/>
    </contour>
    <contour>
      <point x="212" y="449" type="move" name="center"/>
    </contour>
  </outline>
</glyph>
<glyph name="yen" format="1">
  <advance width="903"/>
  <unicode hex="00A5"/>
  <outline>
    <contour>
      <point x="353" y="447" type="line"/>
      <point x="353" y="470" type="line"/>
      <point x="15" y="470" type="line"/>
      <point x="15" y="447" type="line"/>
    </contour>
    <contour>
      <point x="888" y="447" type="line"/>
      <point x="888" y="470" type="line"/>
      <point x="551" y="470" type="line"/>
      <point x="551" y="447" type="line"/>
    </contour>
    <contour>
      <point x="460" y="150" type="line"/>
      <point x="733" y="459" type="line"/>
      <point x="704" y="459" type="line"/>
      <point x="445" y="165" type="line"/>
      <point x="460" y="165" type="line"/>
      <point x="201" y="457" type="line"/>
      <point x="170" y="457" type="line"/>
      <point x="443" y="150" type="line"/>
    </contour>
    <contour>
      <point x="587" y="300" type="line"/>
      <point x="587" y="322" type="line"/>
      <point x="91" y="322" type="line"/>
      <point x="91" y="300" type="line"/>
    </contour>
    <contour>
      <point x="814" y="300" type="line"/>
      <point x="814" y="322" type="line"/>
      <point x="316" y="322" type="line"/>
      <point x="316" y="300" type="line"/>
    </contour>
    <contour>
      <point x="814" y="149" type="line"/>
      <point x="814" y="171" type="line"/>
      <point x="91" y="171" type="line"/>
      <point x="91" y="149" type="line"/>
    </contour>
    <contour>
      <point x="465" y="-1" type="line"/>
      <point x="465" y="160" type="line"/>
      <point x="440" y="160" type="line"/>
      <point x="440" y="-1" type="line"/>
    </contour>
    <contour>
      <point x="647" y="-1" type="line"/>
      <point x="647" y="22" type="line"/>
      <point x="257" y="22" type="line"/>
      <point x="257" y="-1" type="line"/>
    </contour>
  </outline>
</glyph>
<glyph name="Adieresis" format="1">
  <advance width="1028"/>
  <unicode hex="00C4"/>
  <outline>
    <contour>
      <point x="180" y="12" type="line"/>
      <point x="516" y="502" type="line"/>
      <point x="512" y="502" type="line"/>
      <point x="849" y="12" type="line"/>
      <point x="878" y="12" type="line"/>
      <point x="533" y="510" type="line" smooth="yes"/>
      <point x="495" y="510" type="line"/>
      <point x="150" y="12" type="line"/>
    </contour>
    <contour>
      <point x="335" y="-1" type="line"/>
      <point x="335" y="22" type="line"/>
      <point x="-5" y="22" type="line"/>
      <point x="-5" y="-1" type="line"/>
    </contour>
    <contour>
      <point x="733" y="199" type="line"/>
      <point x="717" y="221" type="line"/>
      <point x="309" y="221" type="line"/>
      <point x="291" y="199" type="line"/>
    </contour>
    <contour>
      <point x="1033" y="-1" type="line"/>
      <point x="1033" y="22" type="line"/>
      <point x="693" y="22" type="line"/>
      <point x="693" y="-1" type="line"/>
    </contour>
    <contour>
      <point x="702" y="497" type="line"/>
      <point x="702" y="520" type="line"/>
      <point x="325" y="520" type="line"/>
      <point x="325" y="497" type="line"/>
    </contour>
    <contour>
      <point x="650" y="635"/>
      <point x="665" y="648"/>
      <point x="665" y="664" type="curve"/>
      <point x="665" y="681"/>
      <point x="650" y="693"/>
      <point x="620" y="693" type="curve"/>
      <point x="593" y="693"/>
      <point x="575" y="681"/>
      <point x="575" y="664" type="curve"/>
      <point x="575" y="648"/>
      <point x="593" y="635"/>
      <point x="620" y="635" type="curve"/>
    </contour>
    <contour>
      <point x="427" y="635"/>
      <point x="443" y="648"/>
      <point x="443" y="664" type="curve"/>
      <point x="443" y="681"/>
      <point x="427" y="693"/>
      <point x="398" y="693" type="curve"/>
      <point x="369" y="693"/>
      <point x="353" y="681"/>
      <point x="353" y="664" type="curve"/>
      <point x="353" y="648"/>
      <point x="369" y="635"/>
      <point x="398" y="635" type="curve"/>
    </contour>
    <contour>
      <point x="605" y="751" type="move" name="hook"/>
    </contour>
    <contour>
      <point x="1033" y="165" type="move" name="ogonek"/>
    </contour>
    <contour>
      <point x="513" y="686" type="move" name="top"/>
    </contour>
    <contour>
      <point x="515" y="165" type="move" name="bottom"/>
    </contour>
  </outline>
</glyph>
<glyph name="AE" format="1">
  <advance width="1424"/>
  <unicode hex="00C6"/>
  <outline>
    <contour>
      <point x="185" y="12" type="line"/>
      <point x="625" y="502" type="line"/>
      <point x="616" y="502" type="line"/>
      <point x="856" y="12" type="line"/>
      <point x="884" y="12" type="line"/>
      <point x="638" y="510" type="line" smooth="yes"/>
      <point x="599" y="510" type="line"/>
      <point x="152" y="12" type="line"/>
    </contour>
    <contour>
      <point x="350" y="-1" type="line"/>
      <point x="350" y="22" type="line"/>
      <point x="0" y="22" type="line"/>
      <point x="0" y="-1" type="line"/>
    </contour>
    <contour>
      <point x="771" y="193" type="line"/>
      <point x="771" y="216" type="line"/>
      <point x="360" y="216" type="line"/>
      <point x="336" y="193" type="line"/>
    </contour>
    <contour>
      <point x="1294" y="-1" type="line"/>
      <point x="1294" y="183" type="line"/>
      <point x="1269" y="183" type="line"/>
      <point x="1269" y="22" type="line"/>
      <point x="676" y="22" type="line"/>
      <point x="676" y="-1" type="line"/>
    </contour>
    <contour>
      <point x="1027" y="157" type="line"/>
      <point x="1027" y="397" type="line"/>
      <point x="1002" y="397" type="line"/>
      <point x="1002" y="289" type="line"/>
      <point x="739" y="289" type="line"/>
      <point x="739" y="265" type="line"/>
      <point x="1002" y="265" type="line"/>
      <point x="1002" y="157" type="line"/>
    </contour>
    <contour>
      <point x="1294" y="336" type="line"/>
      <point x="1294" y="520" type="line"/>
      <point x="415" y="520" type="line"/>
      <point x="415" y="497" type="line"/>
      <point x="1268" y="497" type="line"/>
      <point x="1268" y="336" type="line"/>
    </contour>
    <contour>
      <point x="1294" y="165" type="move" name="ogonek"/>
    </contour>
    <contour>
      <point x="784" y="165" type="move" name="bottom"/>
    </contour>
    <contour>
      <point x="786" y="686" type="move" name="top"/>
    </contour>
  </outline>
</glyph>
<glyph name="Icircumflex" format="1">
  <advance width="502"/>
  <unicode hex="00CE"/>
  <outline>
    <contour>
      <point x="264" y="12" type="line" smooth="yes"/>
      <point x="264" y="507" type="line" smooth="yes"/>
      <point x="239" y="507" type="line" smooth="yes"/>
      <point x="239" y="12" type="line" smooth="yes"/>
    </contour>
    <contour>
      <point x="446" y="-1" type="line" smooth="yes"/>
      <point x="446" y="22" type="line" smooth="yes"/>
      <point x="56" y="22" type="line" smooth="yes"/>
      <point x="56" y="-1" type="line" smooth="yes"/>
    </contour>
    <contour>
      <point x="446" y="496" type="line" smooth="yes"/>
      <point x="446" y="520" type="line" smooth="yes"/>
      <point x="56" y="520" type="line" smooth="yes"/>
      <point x="56" y="496" type="line" smooth="yes"/>
    </contour>
    <contour>
      <point x="252" y="700" type="line"/>
      <point x="419" y="572" type="line"/>
      <point x="429" y="585" type="line"/>
      <point x="261" y="727" type="line"/>
      <point x="242" y="727" type="line"/>
      <point x="74" y="585" type="line"/>
      <point x="85" y="572" type="line"/>
    </contour>
    <contour>
      <point x="446" y="165" type="move" name="ogonek"/>
    </contour>
    <contour>
      <point x="252" y="165" type="move" name="bottom"/>
    </contour>
    <contour>
      <point x="252" y="686" type="move" name="top"/>
    </contour>
  </outline>
</glyph>
<glyph name="Ntilde" format="1">
  <advance width="1110"/>
  <unicode hex="00D1"/>
  <outline>
    <contour>
      <point x="913" y="-7" type="line"/>
      <point x="913" y="507" type="line"/>
      <point x="888" y="507" type="line"/>
      <point x="888" y="42" type="line"/>
      <point x="264" y="520" type="line"/>
      <point x="220" y="520" type="line"/>
      <point x="908" y="-7" type="line"/>
    </contour>
    <contour>
      <point x="446" y="-1" type="line"/>
      <point x="446" y="22" type="line"/>
      <point x="56" y="22" type="line"/>
      <point x="56" y="-1" type="line"/>
    </contour>
    <contour>
      <point x="264" y="10" type="line"/>
      <point x="264" y="520" type="line"/>
      <point x="239" y="520" type="line"/>
      <point x="239" y="10" type="line"/>
    </contour>
    <contour>
      <point x="264" y="496" type="line"/>
      <point x="264" y="520" type="line"/>
      <point x="56" y="520" type="line"/>
      <point x="56" y="496" type="line"/>
    </contour>
    <contour>
      <point x="1095" y="496" type="line"/>
      <point x="1095" y="520" type="line"/>
      <point x="705" y="520" type="line"/>
      <point x="705" y="496" type="line"/>
    </contour>
    <contour>
      <point x="677" y="617"/>
      <point x="714" y="662"/>
      <point x="726" y="730" type="curve"/>
      <point x="705" y="733" type="line"/>
      <point x="693" y="666"/>
      <point x="658" y="639"/>
      <point x="621" y="639" type="curve" smooth="yes"/>
      <point x="587" y="639"/>
      <point x="556" y="660"/>
      <point x="523" y="683" type="curve" smooth="yes"/>
      <point x="488" y="707"/>
      <point x="455" y="733"/>
      <point x="410" y="733" type="curve" smooth="yes"/>
      <point x="350" y="733"/>
      <point x="312" y="687"/>
      <point x="301" y="619" type="curve"/>
      <point x="322" y="615" type="line"/>
      <point x="333" y="683"/>
      <point x="368" y="711"/>
      <point x="407" y="711" type="curve" smooth="yes"/>
      <point x="442" y="711"/>
      <point x="472" y="690"/>
      <point x="504" y="667" type="curve" smooth="yes"/>
      <point x="539" y="642"/>
      <point x="574" y="617"/>
      <point x="618" y="617" type="curve" smooth="yes"/>
    </contour>
    <contour>
      <point x="523" y="676" type="move" name="top"/>
    </contour>
    <contour>
      <point x="623" y="175" type="move" name="bottom"/>
    </contour>
  </outline>
</glyph>
<glyph name="Otilde" format="1">
  <advance width="919"/>
  <unicode hex="00D5"/>
  <outline>
    <contour>
      <point x="676" y="-11"/>
      <point x="844" y="88"/>
      <point x="844" y="259" type="curve"/>
      <point x="844" y="431"/>
      <point x="676" y="531"/>
      <point x="460" y="531" type="curve"/>
      <point x="242" y="531"/>
      <point x="75" y="431"/>
      <point x="75" y="259" type="curve"/>
      <point x="75" y="88"/>
      <point x="242" y="-11"/>
      <point x="460" y="-11" type="curve"/>
    </contour>
    <contour>
      <point x="252" y="12"/>
      <point x="100" y="105"/>
      <point x="100" y="259" type="curve"/>
      <point x="100" y="414"/>
      <point x="252" y="507"/>
      <point x="460" y="507" type="curve"/>
      <point x="666" y="507"/>
      <point x="819" y="414"/>
      <point x="819" y="259" type="curve"/>
      <point x="819" y="105"/>
      <point x="666" y="12"/>
      <point x="460" y="12" type="curve"/>
    </contour>
    <contour>
      <point x="614" y="637"/>
      <point x="651" y="683"/>
      <point x="663" y="750" type="curve"/>
      <point x="641" y="753" type="line"/>
      <point x="630" y="686"/>
      <point x="595" y="660"/>
      <point x="558" y="660" type="curve" smooth="yes"/>
      <point x="524" y="660"/>
      <point x="492" y="680"/>
      <point x="460" y="703" type="curve" smooth="yes"/>
      <point x="425" y="727"/>
      <point x="392" y="753"/>
      <point x="347" y="753" type="curve" smooth="yes"/>
      <point x="287" y="753"/>
      <point x="249" y="708"/>
      <point x="238" y="639" type="curve"/>
      <point x="259" y="636" type="line"/>
      <point x="270" y="703"/>
      <point x="305" y="731"/>
      <point x="344" y="731" type="curve" smooth="yes"/>
      <point x="379" y="731"/>
      <point x="409" y="711"/>
      <point x="441" y="687" type="curve" smooth="yes"/>
      <point x="476" y="663"/>
      <point x="511" y="637"/>
      <point x="555" y="637" type="curve" smooth="yes"/>
    </contour>
    <contour>
      <point x="460" y="410" type="move" name="center"/>
    </contour>
    <contour>
      <point x="461" y="156" type="move" name="ogonek"/>
    </contour>
    <contour>
      <point x="460" y="697" type="move" name="top"/>
    </contour>
    <contour>
      <point x="894" y="656" type="move" name="topright"/>
    </contour>
    <contour>
      <point x="460" y="155" type="move" name="bottom"/>
    </contour>
  </outline>
</glyph>
<glyph name="Udieresis" format="1">
  <advance width="1004"/>
  <unicode hex="00DC"/>
  <outline>
    <contour>
      <point x="696" y="-11"/>
      <point x="822" y="78"/>
      <point x="822" y="254" type="curve" smooth="yes"/>
      <point x="822" y="507" type="line"/>
      <point x="800" y="507" type="line"/>
      <point x="796" y="241" type="line" smooth="yes"/>
      <point x="794" y="88"/>
      <point x="677" y="12"/>
      <point x="502" y="12" type="curve"/>
      <point x="327" y="12"/>
      <point x="210" y="88"/>
      <point x="207" y="243" type="curve" smooth="yes"/>
      <point x="205" y="507" type="line"/>
      <point x="182" y="507" type="line"/>
      <point x="182" y="254" type="line" smooth="yes"/>
      <point x="182" y="78"/>
      <point x="309" y="-11"/>
      <point x="502" y="-11" type="curve"/>
    </contour>
    <contour>
      <point x="387" y="496" type="line"/>
      <point x="387" y="520" type="line"/>
      <point x="0" y="520" type="line"/>
      <point x="0" y="496" type="line"/>
    </contour>
    <contour>
      <point x="1004" y="496" type="line"/>
      <point x="1004" y="520" type="line"/>
      <point x="617" y="520" type="line"/>
      <point x="617" y="496" type="line"/>
    </contour>
    <contour>
      <point x="639" y="625"/>
      <point x="654" y="638"/>
      <point x="654" y="655" type="curve"/>
      <point x="654" y="671"/>
      <point x="639" y="683"/>
      <point x="610" y="683" type="curve"/>
      <point x="582" y="683"/>
      <point x="565" y="671"/>
      <point x="565" y="655" type="curve"/>
      <point x="565" y="638"/>
      <point x="582" y="625"/>
      <point x="610" y="625" type="curve"/>
    </contour>
    <contour>
      <point x="416" y="625"/>
      <point x="432" y="638"/>
      <point x="432" y="655" type="curve"/>
      <point x="432" y="671"/>
      <point x="416" y="683"/>
      <point x="388" y="683" type="curve"/>
      <point x="359" y="683"/>
      <point x="343" y="671"/>
      <point x="343" y="655" type="curve"/>
      <point x="343" y="638"/>
      <point x="359" y="625"/>
      <point x="388" y="625" type="curve"/>
    </contour>
    <contour>
      <point x="502" y="155" type="move" name="ogonek"/>
    </contour>
    <contour>
      <point x="502" y="676" type="move" name="top"/>
    </contour>
    <contour>
      <point x="995" y="656" type="move" name="topright"/>
    </contour>
    <contour>
      <point x="502" y="155" type="move" name="bottom"/>
    </contour>
  </outline>
</glyph>
<glyph name="ae" format="1">
  <advance width="1219"/>
  <unicode hex="00E6"/>
  <outline>
    <contour>
      <point x="959" y="-21"/>
      <point x="1056" y="8"/>
      <point x="1134" y="54" type="curve"/>
      <point x="1123" y="73" type="line"/>
      <point x="1047" y="29"/>
      <point x="955" y="0"/>
      <point x="858" y="2" type="curve"/>
      <point x="747" y="0"/>
      <point x="607" y="60"/>
      <point x="607" y="166" type="curve" smooth="yes"/>
      <point x="607" y="290"/>
      <point x="768" y="353"/>
      <point x="895" y="353" type="curve" smooth="yes"/>
      <point x="1005" y="353"/>
      <point x="1108" y="324"/>
      <point x="1108" y="258" type="curve" smooth="yes"/>
      <point x="1108" y="183"/>
      <point x="998" y="164"/>
      <point x="903" y="164" type="curve" smooth="yes"/>
      <point x="804" y="164"/>
      <point x="705" y="175"/>
      <point x="601" y="188" type="curve"/>
      <point x="600" y="164" type="line"/>
      <point x="705" y="151"/>
      <point x="806" y="141"/>
      <point x="903" y="141" type="curve" smooth="yes"/>
      <point x="1013" y="141"/>
      <point x="1133" y="170"/>
      <point x="1133" y="259" type="curve" smooth="yes"/>
      <point x="1133" y="340"/>
      <point x="1018" y="376"/>
      <point x="899" y="376" type="curve" smooth="yes"/>
      <point x="749" y="376"/>
      <point x="609" y="306"/>
      <point x="593" y="196" type="curve"/>
      <point x="603" y="196" type="line"/>
      <point x="603" y="297"/>
      <point x="537" y="376"/>
      <point x="395" y="376" type="curve" smooth="yes"/>
      <point x="298" y="376"/>
      <point x="207" y="356"/>
      <point x="112" y="322" type="curve"/>
      <point x="119" y="300" type="line"/>
      <point x="207" y="331"/>
      <point x="294" y="354"/>
      <point x="395" y="354" type="curve" smooth="yes"/>
      <point x="531" y="354"/>
      <point x="584" y="275"/>
      <point x="584" y="196" type="curve" smooth="yes"/>
      <point x="584" y="166" type="line"/>
      <point x="584" y="40"/>
      <point x="738" y="-21"/>
      <point x="858" y="-21" type="curve"/>
    </contour>
    <contour>
      <point x="373" y="-21"/>
      <point x="512" y="20"/>
      <point x="612" y="91" type="curve"/>
      <point x="612" y="113" type="line"/>
      <point x="508" y="43"/>
      <point x="371" y="2"/>
      <point x="268" y="2" type="curve"/>
      <point x="195" y="2"/>
      <point x="116" y="27"/>
      <point x="116" y="88" type="curve"/>
      <point x="116" y="157"/>
      <point x="202" y="188"/>
      <point x="307" y="188" type="curve" smooth="yes"/>
      <point x="410" y="188"/>
      <point x="502" y="175"/>
      <point x="595" y="164" type="curve"/>
      <point x="595" y="188" type="line"/>
      <point x="502" y="199"/>
      <point x="412" y="210"/>
      <point x="307" y="210" type="curve" smooth="yes"/>
      <point x="189" y="210"/>
      <point x="90" y="173"/>
      <point x="90" y="88" type="curve"/>
      <point x="90" y="9"/>
      <point x="166" y="-21"/>
      <point x="268" y="-21" type="curve"/>
    </contour>
    <contour>
      <point x="1134" y="220" type="move" name="ogonek"/>
    </contour>
    <contour>
      <point x="601" y="155" type="move" name="bottom"/>
    </contour>
    <contour>
      <point x="596" y="532" type="move" name="top"/>
    </contour>
  </outline>
</glyph>
<glyph name="otilde" format="1">
  <advance width="802"/>
  <unicode hex="00F5"/>
  <outline>
    <contour>
      <point x="580" y="-11"/>
      <point x="721" y="59"/>
      <point x="721" y="179" type="curve"/>
      <point x="721" y="301"/>
      <point x="580" y="366"/>
      <point x="401" y="366" type="curve"/>
      <point x="222" y="366"/>
      <point x="81" y="301"/>
      <point x="81" y="179" type="curve"/>
      <point x="81" y="59"/>
      <point x="222" y="-11"/>
      <point x="401" y="-11" type="curve" smooth="yes"/>
    </contour>
    <contour>
      <point x="233" y="12"/>
      <point x="106" y="75"/>
      <point x="106" y="179" type="curve"/>
      <point x="106" y="284"/>
      <point x="233" y="342"/>
      <point x="401" y="343" type="curve"/>
      <point x="568" y="343"/>
      <point x="696" y="284"/>
      <point x="696" y="179" type="curve"/>
      <point x="696" y="75"/>
      <point x="568" y="12"/>
      <point x="401" y="12" type="curve" smooth="yes"/>
    </contour>
    <contour>
      <point x="556" y="473"/>
      <point x="593" y="518"/>
      <point x="604" y="586" type="curve"/>
      <point x="583" y="589" type="line"/>
      <point x="572" y="522"/>
      <point x="537" y="496"/>
      <point x="499" y="496" type="curve" smooth="yes"/>
      <point x="465" y="496"/>
      <point x="434" y="516"/>
      <point x="401" y="539" type="curve" smooth="yes"/>
      <point x="366" y="563"/>
      <point x="334" y="589"/>
      <point x="288" y="589" type="curve" smooth="yes"/>
      <point x="228" y="589"/>
      <point x="191" y="544"/>
      <point x="179" y="475" type="curve"/>
      <point x="201" y="471" type="line"/>
      <point x="211" y="539"/>
      <point x="246" y="567"/>
      <point x="286" y="567" type="curve" smooth="yes"/>
      <point x="321" y="567"/>
      <point x="350" y="547"/>
      <point x="382" y="523" type="curve" smooth="yes"/>
      <point x="417" y="499"/>
      <point x="452" y="473"/>
      <point x="496" y="473" type="curve" smooth="yes"/>
    </contour>
    <contour>
      <point x="401" y="345" type="move" name="center"/>
    </contour>
    <contour>
      <point x="401" y="155" type="move" name="ogonek"/>
    </contour>
    <contour>
      <point x="401" y="532" type="move" name="top"/>
    </contour>
    <contour>
      <point x="771" y="523" type="move" name="topright"/>
    </contour>
    <contour>
      <point x="401" y="155" type="move" name="bottom"/>
    </contour>
  </outline>
</glyph>
<glyph name="Abreve" format="1">
  <advance width="1028"/>
  <unicode hex="0102"/>
  <outline>
    <contour>
      <point x="180" y="12" type="line"/>
      <point x="516" y="502" type="line"/>
      <point x="512" y="502" type="line"/>
      <point x="849" y="12" type="line"/>
      <point x="878" y="12" type="line"/>
      <point x="533" y="510" type="line" smooth="yes"/>
      <point x="495" y="510" type="line"/>
      <point x="150" y="12" type="line"/>
    </contour>
    <contour>
      <point x="335" y="-1" type="line"/>
      <point x="335" y="22" type="line"/>
      <point x="-5" y="22" type="line"/>
      <point x="-5" y="-1" type="line"/>
    </contour>
    <contour>
      <point x="733" y="199" type="line"/>
      <point x="717" y="221" type="line"/>
      <point x="309" y="221" type="line"/>
      <point x="291" y="199" type="line"/>
    </contour>
    <contour>
      <point x="1033" y="-1" type="line"/>
      <point x="1033" y="22" type="line"/>
      <point x="693" y="22" type="line"/>
      <point x="693" y="-1" type="line"/>
    </contour>
    <contour>
      <point x="702" y="497" type="line"/>
      <point x="702" y="520" type="line"/>
      <point x="325" y="520" type="line"/>
      <point x="325" y="497" type="line"/>
    </contour>
    <contour>
      <point x="610" y="609"/>
      <point x="671" y="680"/>
      <point x="686" y="750" type="curve"/>
      <point x="667" y="756" type="line"/>
      <point x="646" y="685"/>
      <point x="587" y="632"/>
      <point x="514" y="632" type="curve"/>
      <point x="441" y="632"/>
      <point x="379" y="685"/>
      <point x="359" y="756" type="curve"/>
      <point x="339" y="750" type="line"/>
      <point x="354" y="680"/>
      <point x="416" y="609"/>
      <point x="513" y="609" type="curve"/>
    </contour>
    <contour>
      <point x="605" y="751" type="move" name="hook"/>
    </contour>
    <contour>
      <point x="1033" y="165" type="move" name="ogonek"/>
    </contour>
    <contour>
      <point x="513" y="686" type="move" name="top"/>
    </contour>
    <contour>
      <point x="515" y="165" type="move" name="bottom"/>
    </contour>
  </outline>
</glyph>
<glyph name="Aogonek" format="1">
  <advance width="1028"/>
  <unicode hex="0104"/>
  <outline>
    <contour>
      <point x="180" y="12" type="line"/>
      <point x="516" y="502" type="line"/>
      <point x="512" y="502" type="line"/>
      <point x="849" y="12" type="line"/>
      <point x="878" y="12" type="line"/>
      <point x="533" y="510" type="line" smooth="yes"/>
      <point x="495" y="510" type="line"/>
      <point x="150" y="12" type="line"/>
    </contour>
    <contour>
      <point x="335" y="-1" type="line"/>
      <point x="335" y="22" type="line"/>
      <point x="-5" y="22" type="line"/>
      <point x="-5" y="-1" type="line"/>
    </contour>
    <contour>
      <point x="733" y="199" type="line"/>
      <point x="717" y="221" type="line"/>
      <point x="309" y="221" type="line"/>
      <point x="291" y="199" type="line"/>
    </contour>
    <contour>
      <point x="1033" y="-1" type="line"/>
      <point x="1033" y="22" type="line"/>
      <point x="693" y="22" type="line"/>
      <point x="693" y="-1" type="line"/>
    </contour>
    <contour>
      <point x="702" y="497" type="line"/>
      <point x="702" y="520" type="line"/>
      <point x="325" y="520" type="line"/>
      <point x="325" y="497" type="line"/>
    </contour>
    <contour>
      <point x="1024" y="9" type="line"/>
      <point x="961" y="-7"/>
      <point x="924" y="-43"/>
      <point x="924" y="-86" type="curve" smooth="yes"/>
      <point x="924" y="-138"/>
      <point x="980" y="-169"/>
      <point x="1045" y="-169" type="curve" smooth="yes"/>
      <point x="1100" y="-169"/>
      <point x="1140" y="-149"/>
      <point x="1169" y="-131" type="curve"/>
      <point x="1158" y="-111" type="line"/>
      <point x="1132" y="-128"/>
      <point x="1094" y="-146"/>
      <point x="1045" y="-146" type="curve" smooth="yes"/>
      <point x="993" y="-146"/>
      <point x="949" y="-123"/>
      <point x="949" y="-83" type="curve" smooth="yes"/>
      <point x="949" y="-43"/>
      <point x="986" y="-17"/>
      <point x="1033" y="-1" type="curve"/>
    </contour>
    <contour>
      <point x="605" y="751" type="move" name="hook"/>
    </contour>
    <contour>
      <point x="1033" y="165" type="move" name="ogonek"/>
    </contour>
    <contour>
      <point x="513" y="686" type="move" name="top"/>
    </contour>
    <contour>
      <point x="515" y="165" type="move" name="bottom"/>
    </contour>
  </outline>
</glyph>
<glyph name="Idotaccent" format="1">
  <advance width="502"/>
  <unicode hex="0130"/>
  <outline>
    <contour>
      <point x="264" y="12" type="line" smooth="yes"/>
      <point x="264" y="507" type="line" smooth="yes"/>
      <point x="239" y="507" type="line" smooth="yes"/>
      <point x="239" y="12" type="line" smooth="yes"/>
    </contour>
    <contour>
      <point x="446" y="-1" type="line" smooth="yes"/>
      <point x="446" y="22" type="line" smooth="yes"/>
      <point x="56" y="22" type="line" smooth="yes"/>
      <point x="56" y="-1" type="line" smooth="yes"/>
    </contour>
    <contour>
      <point x="446" y="496" type="line" smooth="yes"/>
      <point x="446" y="520" type="line" smooth="yes"/>
      <point x="56" y="520" type="line" smooth="yes"/>
      <point x="56" y="496" type="line" smooth="yes"/>
    </contour>
    <contour>
      <point x="283" y="634"/>
      <point x="299" y="647"/>
      <point x="299" y="664" type="curve"/>
      <point x="299" y="682"/>
      <point x="283" y="695"/>
      <point x="252" y="695" type="curve"/>
      <point x="222" y="695"/>
      <point x="205" y="682"/>
      <point x="205" y="664" type="curve"/>
      <point x="205" y="647"/>
      <point x="222" y="634"/>
      <point x="252" y="634" type="curve"/>
    </contour>
    <contour>
      <point x="446" y="165" type="move" name="ogonek"/>
    </contour>
    <contour>
      <point x="252" y="165" type="move" name="bottom"/>
    </contour>
    <contour>
      <point x="252" y="686" type="move" name="top"/>
    </contour>
  </outline>
</glyph>
<glyph name="eng" format="1">
  <advance width="925"/>
  <unicode hex="014B"/>
  <outline>
    <contour>
      <point x="724" y="-182"/>
      <point x="774" y="-121"/>
      <point x="774" y="-23" type="curve" smooth="yes"/>
      <point x="774" y="134" type="line" smooth="yes"/>
      <point x="774" y="256"/>
      <point x="726" y="366"/>
      <point x="568" y="366" type="curve" smooth="yes"/>
      <point x="432" y="366"/>
      <point x="309" y="263"/>
      <point x="245" y="210" type="curve"/>
      <point x="245" y="188" type="line"/>
      <point x="309" y="239"/>
      <point x="432" y="344"/>
      <point x="568" y="344" type="curve" smooth="yes"/>
      <point x="716" y="344"/>
      <point x="749" y="236"/>
      <point x="749" y="134" type="curve" smooth="yes"/>
      <point x="749" y="-25" type="line" smooth="yes"/>
      <point x="749" y="-112"/>
      <point x="708" y="-159"/>
      <point x="632" y="-159" type="curve" smooth="yes"/>
      <point x="584" y="-159"/>
      <point x="538" y="-148"/>
      <point x="496" y="-135" type="curve"/>
      <point x="490" y="-157" type="line"/>
      <point x="532" y="-170"/>
      <point x="578" y="-182"/>
      <point x="630" y="-182" type="curve" smooth="yes"/>
    </contour>
    <contour>
      <point x="418" y="-1" type="line"/>
      <point x="418" y="22" type="line"/>
      <point x="50" y="22" type="line"/>
      <point x="50" y="-1" type="line"/>
    </contour>
    <contour>
      <point x="258" y="-1" type="line"/>
      <point x="258" y="357" type="line"/>
      <point x="233" y="357" type="line"/>
      <point x="233" y="-1" type="line"/>
    </contour>
    <contour>
      <point x="258" y="334" type="line"/>
      <point x="258" y="357" type="line"/>
      <point x="50" y="357" type="line"/>
      <point x="50" y="334" type="line"/>
    </contour>
    <contour>
      <point x="521" y="532" type="move" name="top"/>
    </contour>
    <contour>
      <point x="511" y="165" type="move" name="bottom"/>
    </contour>
  </outline>
</glyph>
<glyph name="Racute" format="1">
  <advance width="1060"/>
  <unicode hex="0154"/>
  <outline>
    <contour>
      <point x="719" y="240" type="line" smooth="yes"/>
      <point x="844" y="240"/>
      <point x="903" y="309"/>
      <point x="903" y="378" type="curve" smooth="yes"/>
      <point x="903" y="457"/>
      <point x="843" y="520"/>
      <point x="719" y="520" type="curve" smooth="yes"/>
      <point x="56" y="520" type="line"/>
      <point x="56" y="496" type="line"/>
      <point x="719" y="496" type="line" smooth="yes"/>
      <point x="828" y="496"/>
      <point x="878" y="441"/>
      <point x="878" y="378" type="curve" smooth="yes"/>
      <point x="878" y="316"/>
      <point x="826" y="263"/>
      <point x="719" y="263" type="curve" smooth="yes"/>
      <point x="259" y="263" type="line"/>
      <point x="259" y="240" type="line"/>
    </contour>
    <contour>
      <point x="446" y="-1" type="line"/>
      <point x="446" y="23" type="line"/>
      <point x="56" y="21" type="line"/>
      <point x="56" y="-2" type="line"/>
    </contour>
    <contour>
      <point x="264" y="12" type="line"/>
      <point x="264" y="507" type="line"/>
      <point x="239" y="507" type="line"/>
      <point x="239" y="12" type="line"/>
    </contour>
    <contour>
      <point x="952" y="-11"/>
      <point x="1015" y="63"/>
      <point x="1015" y="154" type="curve" smooth="yes"/>
      <point x="1015" y="175" type="line"/>
      <point x="990" y="175" type="line"/>
      <point x="990" y="154" type="line" smooth="yes"/>
      <point x="990" y="74"/>
      <point x="934" y="12"/>
      <point x="857" y="12" type="curve" smooth="yes"/>
      <point x="777" y="12"/>
      <point x="736" y="66"/>
      <point x="677" y="138" type="curve" smooth="yes"/>
      <point x="603" y="226"/>
      <point x="570" y="252"/>
      <point x="461" y="252" type="curve" smooth="yes"/>
      <point x="259" y="252" type="line"/>
      <point x="259" y="239" type="line"/>
      <point x="473" y="239" type="line" smooth="yes"/>
      <point x="558" y="239"/>
      <point x="597" y="200"/>
      <point x="657" y="124" type="curve" smooth="yes"/>
      <point x="716" y="48"/>
      <point x="768" y="-11"/>
      <point x="857" y="-11" type="curve" smooth="yes"/>
    </contour>
    <contour>
      <point x="693" y="742" type="line"/>
      <point x="708" y="715" type="line"/>
      <point x="467" y="585" type="line"/>
      <point x="458" y="601" type="line"/>
    </contour>
    <contour>
      <point x="526" y="686" type="move" name="top"/>
    </contour>
    <contour>
      <point x="566" y="165" type="move" name="bottom"/>
    </contour>
  </outline>
</glyph>
<glyph name="tcedilla" format="1">
  <advance width="525"/>
  <unicode hex="0163"/>
  <outline>
    <contour>
      <point x="357" y="-11"/>
      <point x="421" y="13"/>
      <point x="465" y="34" type="curve"/>
      <point x="454" y="55" type="line"/>
      <point x="413" y="34"/>
      <point x="354" y="12"/>
      <point x="285" y="12" type="curve" smooth="yes"/>
      <point x="223" y="12"/>
      <point x="181" y="40"/>
      <point x="181" y="123" type="curve"/>
      <point x="181" y="456" type="line"/>
      <point x="156" y="456" type="line"/>
      <point x="156" y="123" type="line"/>
      <point x="156" y="25"/>
      <point x="206" y="-11"/>
      <point x="287" y="-11" type="curve" smooth="yes"/>
    </contour>
    <contour>
      <point x="420" y="333" type="line"/>
      <point x="420" y="357" type="line"/>
      <point x="25" y="357" type="line"/>
      <point x="25" y="333" type="line"/>
    </contour>
    <contour>
      <point x="347" y="-187"/>
      <point x="385" y="-165"/>
      <point x="385" y="-127" type="curve" smooth="yes"/>
      <point x="385" y="-90"/>
      <point x="348" y="-68"/>
      <point x="293" y="-68" type="curve" smooth="yes"/>
      <point x="271" y="-68"/>
      <point x="255" y="-70"/>
      <point x="239" y="-71" type="curve"/>
      <point x="265" y="4" type="line"/>
      <point x="245" y="4" type="line"/>
      <point x="212" y="-87" type="line"/>
      <point x="217" y="-93" type="line"/>
      <point x="239" y="-91"/>
      <point x="260" y="-89"/>
      <point x="293" y="-89" type="curve" smooth="yes"/>
      <point x="338" y="-89"/>
      <point x="362" y="-102"/>
      <point x="362" y="-127" type="curve" smooth="yes"/>
      <point x="362" y="-153"/>
      <point x="331" y="-165"/>
      <point x="275" y="-165" type="curve" smooth="yes"/>
      <point x="214" y="-165"/>
      <point x="170" y="-148"/>
      <point x="145" y="-136" type="curve"/>
      <point x="136" y="-156" type="line"/>
      <point x="164" y="-169"/>
      <point x="209" y="-187"/>
      <point x="275" y="-187" type="curve" smooth="yes"/>
    </contour>
    <contour>
      <point x="261" y="345" type="move" name="center"/>
    </contour>
    <contour>
      <point x="261" y="622" type="move" name="top"/>
    </contour>
    <contour>
      <point x="229" y="618" type="move" name="topright"/>
    </contour>
    <contour>
      <point x="261" y="155" type="move" name="bottom"/>
    </contour>
  </outline>
</glyph>
<glyph name="Tcaron" format="1">
  <advance width="955"/>
  <unicode hex="0164"/>
  <outline>
    <contour>
      <point x="116" y="336" type="line"/>
      <point x="116" y="497" type="line"/>
      <point x="839" y="497" type="line"/>
      <point x="839" y="336" type="line"/>
      <point x="864" y="336" type="line"/>
      <point x="864" y="520" type="line"/>
      <point x="90" y="520" type="line"/>
      <point x="90" y="336" type="line"/>
    </contour>
    <contour>
      <point x="682" y="-1" type="line"/>
      <point x="682" y="22" type="line"/>
      <point x="272" y="22" type="line"/>
      <point x="272" y="-1" type="line"/>
    </contour>
    <contour>
      <point x="490" y="12" type="line"/>
      <point x="490" y="507" type="line"/>
      <point x="465" y="507" type="line"/>
      <point x="465" y="12" type="line"/>
    </contour>
    <contour>
      <point x="477" y="617" type="line"/>
      <point x="311" y="744" type="line"/>
      <point x="300" y="731" type="line"/>
      <point x="467" y="589" type="line"/>
      <point x="487" y="589" type="line"/>
      <point x="655" y="731" type="line"/>
      <point x="644" y="744" type="line"/>
    </contour>
    <contour>
      <point x="477" y="410" type="move" name="center"/>
    </contour>
    <contour>
      <point x="477" y="165" type="move" name="bottom"/>
    </contour>
    <contour>
      <point x="477" y="686" type="move" name="top"/>
    </contour>
  </outline>
</glyph>
<glyph name="ycircumflex" format="1">
  <advance width="764"/>
  <unicode hex="0177"/>
  <outline>
    <contour>
      <point x="277" y="-182"/>
      <point x="334" y="-125"/>
      <point x="382" y="-50" type="curve" smooth="yes"/>
      <point x="633" y="343" type="line"/>
      <point x="605" y="343" type="line"/>
      <point x="354" y="-51" type="line" smooth="yes"/>
      <point x="310" y="-118"/>
      <point x="261" y="-159"/>
      <point x="192" y="-159" type="curve" smooth="yes"/>
      <point x="135" y="-159"/>
      <point x="93" y="-142"/>
      <point x="43" y="-118" type="curve"/>
      <point x="35" y="-140" type="line"/>
      <point x="87" y="-162"/>
      <point x="126" y="-182"/>
      <point x="191" y="-182" type="curve" smooth="yes"/>
    </contour>
    <contour>
      <point x="388" y="-11" type="line"/>
      <point x="147" y="348" type="line"/>
      <point x="119" y="348" type="line"/>
      <point x="373" y="-36" type="line"/>
    </contour>
    <contour>
      <point x="279" y="333" type="line"/>
      <point x="279" y="357" type="line"/>
      <point x="5" y="357" type="line"/>
      <point x="5" y="333" type="line"/>
    </contour>
    <contour>
      <point x="754" y="333" type="line"/>
      <point x="754" y="357" type="line"/>
      <point x="481" y="357" type="line"/>
      <point x="481" y="333" type="line"/>
    </contour>
    <contour>
      <point x="382" y="537" type="line"/>
      <point x="549" y="409" type="line"/>
      <point x="560" y="422" type="line"/>
      <point x="392" y="564" type="line"/>
      <point x="372" y="564" type="line"/>
      <point x="205" y="422" type="line"/>
      <point x="216" y="409" type="line"/>
    </contour>
    <contour>
      <point x="382" y="523" type="move" name="top"/>
    </contour>
    <contour>
      <point x="382" y="165" type="move" name="bottom"/>
    </contour>
  </outline>
</glyph>
<glyph name="Zacute" format="1">
  <advance width="866"/>
  <unicode hex="0179"/>
  <outline>
    <contour>
      <point x="766" y="-1" type="line"/>
      <point x="766" y="183" type="line"/>
      <point x="741" y="183" type="line"/>
      <point x="741" y="22" type="line"/>
      <point x="179" y="22" type="line" smooth="yes"/>
      <point x="166" y="22"/>
      <point x="155" y="18"/>
      <point x="150" y="18" type="curve"/>
      <point x="150" y="18" type="line"/>
      <point x="155" y="21"/>
      <point x="165" y="24"/>
      <point x="174" y="32" type="curve" smooth="yes"/>
      <point x="762" y="507" type="line"/>
      <point x="762" y="520" type="line"/>
      <point x="106" y="520" type="line"/>
      <point x="106" y="336" type="line"/>
      <point x="131" y="336" type="line"/>
      <point x="131" y="497" type="line"/>
      <point x="689" y="497" type="line" smooth="yes"/>
      <point x="705" y="497"/>
      <point x="718" y="500"/>
      <point x="722" y="501" type="curve"/>
      <point x="722" y="500" type="line"/>
      <point x="718" y="499"/>
      <point x="707" y="493"/>
      <point x="695" y="484" type="curve" smooth="yes"/>
      <point x="109" y="12" type="line"/>
      <point x="109" y="-1" type="line"/>
    </contour>
    <contour>
      <point x="603" y="742" type="line"/>
      <point x="618" y="715" type="line"/>
      <point x="376" y="585" type="line"/>
      <point x="367" y="601" type="line"/>
    </contour>
    <contour>
      <point x="435" y="686" type="move" name="top"/>
    </contour>
    <contour>
      <point x="435" y="165" type="move" name="bottom"/>
    </contour>
  </outline>
</glyph>
<glyph name="hookabovecomb" format="1">
  <advance width="385"/>
  <unicode hex="0309"/>
  <outline>
    <contour>
      <point x="254" y="555" type="line"/>
      <point x="287" y="587"/>
      <point x="309" y="615"/>
      <point x="309" y="651" type="curve" smooth="yes"/>
      <point x="309" y="697"/>
      <point x="269" y="727"/>
      <point x="209" y="727" type="curve" smooth="yes"/>
      <point x="159" y="727"/>
      <point x="119" y="707"/>
      <point x="92" y="687" type="curve"/>
      <point x="103" y="670" type="line"/>
      <point x="131" y="686"/>
      <point x="166" y="704"/>
      <point x="209" y="704" type="curve" smooth="yes"/>
      <point x="256" y="704"/>
      <point x="284" y="681"/>
      <point x="284" y="649" type="curve" smooth="yes"/>
      <point x="284" y="615"/>
      <point x="261" y="591"/>
      <point x="244" y="564" type="curve"/>
    </contour>
    <contour>
      <point x="179" y="634" type="move" name="_hook"/>
    </contour>
  </outline>
</glyph>
<glyph name="pi" format="1">
  <advance width="863"/>
  <unicode hex="03C0"/>
  <outline>
    <contour>
      <point x="768" y="334" type="line"/>
      <point x="768" y="357" type="line"/>
      <point x="30" y="357" type="line"/>
      <point x="30" y="334" type="line"/>
    </contour>
    <contour>
      <point x="727" y="-21"/>
      <point x="753" y="-10"/>
      <point x="778" y="8" type="curve"/>
      <point x="768" y="28" type="line"/>
      <point x="746" y="10"/>
      <point x="724" y="2"/>
      <point x="696" y="2" type="curve" smooth="yes"/>
      <point x="663" y="2"/>
      <point x="632" y="27"/>
      <point x="632" y="83" type="curve"/>
      <point x="632" y="357" type="line"/>
      <point x="607" y="357" type="line"/>
      <point x="607" y="83" type="line"/>
      <point x="607" y="17"/>
      <point x="645" y="-21"/>
      <point x="695" y="-21" type="curve" smooth="yes"/>
    </contour>
    <contour>
      <point x="200" y="-1" type="line"/>
      <point x="200" y="357" type="line"/>
      <point x="175" y="357" type="line"/>
      <point x="175" y="-1" type="line"/>
    </contour>
  </outline>
</glyph>
<glyph name="grKHA" format="1">
  <advance width="916"/>
  <unicode hex="0A16"/>
  <outline>
    <contour>
      <point x="728" y="488" type="line"/>
      <point x="703" y="488" type="line"/>
      <point x="703" y="0" type="line"/>
      <point x="728" y="0" type="line"/>
    </contour>
    <contour>
      <point x="721" y="315" type="line"/>
      <point x="208" y="315" type="line"/>
      <point x="205" y="292" type="line"/>
      <point x="721" y="292" type="line"/>
    </contour>
    <contour>
      <point x="189" y="467" type="line"/>
      <point x="191" y="490" type="line"/>
      <point x="-10" y="490" type="line"/>
      <point x="-10" y="467" type="line"/>
    </contour>
    <contour>
      <point x="703" y="490" type="line"/>
      <point x="703" y="467" type="line"/>
      <point x="926" y="467" type="line"/>
      <point x="926" y="490" type="line"/>
    </contour>
    <contour>
      <point x="174" y="490" type="line"/>
      <point x="200" y="303" type="line"/>
      <point x="167" y="146" type="line"/>
      <point x="254" y="93"/>
      <point x="363" y="68"/>
      <point x="470" y="68" type="curve" smooth="yes"/>
      <point x="569" y="68"/>
      <point x="654" y="81"/>
      <point x="717" y="97" type="curve"/>
      <point x="717" y="121" type="line"/>
      <point x="656" y="105"/>
      <point x="559" y="91"/>
      <point x="470" y="91" type="curve" smooth="yes"/>
      <point x="376" y="91"/>
      <point x="256" y="119"/>
      <point x="186" y="164" type="curve"/>
      <point x="193" y="147" type="line"/>
      <point x="225" y="302" type="line"/>
      <point x="200" y="490" type="line"/>
    </contour>
  </outline>
</glyph>
<glyph name="grDHA" format="1">
  <advance width="891"/>
  <unicode hex="0A27"/>
  <outline>
    <contour>
      <point x="703" y="488" type="line"/>
      <point x="678" y="488" type="line"/>
      <point x="678" y="0" type="line"/>
      <point x="703" y="0" type="line"/>
    </contour>
    <contour>
      <point x="901" y="467" type="line"/>
      <point x="901" y="490" type="line"/>
      <point x="-10" y="490" type="line"/>
      <point x="-10" y="467" type="line"/>
    </contour>
    <contour>
      <point x="178" y="490" type="line"/>
      <point x="204" y="305" type="line"/>
      <point x="171" y="150" type="line"/>
      <point x="258" y="97"/>
      <point x="370" y="72"/>
      <point x="463" y="72" type="curve" smooth="yes"/>
      <point x="550" y="72"/>
      <point x="630" y="86"/>
      <point x="688" y="103" type="curve"/>
      <point x="688" y="127" type="line"/>
      <point x="632" y="110"/>
      <point x="541" y="95"/>
      <point x="463" y="95" type="curve" smooth="yes"/>
      <point x="381" y="95"/>
      <point x="260" y="123"/>
      <point x="190" y="168" type="curve"/>
      <point x="197" y="151" type="line"/>
      <point x="229" y="304" type="line"/>
      <point x="204" y="490" type="line"/>
    </contour>
  </outline>
</glyph>
<glyph name="grPHA" format="1">
  <advance width="868"/>
  <unicode hex="0A2B"/>
  <outline>
    <contour>
      <point x="298" y="59" type="line"/>
      <point x="378" y="124"/>
      <point x="492" y="160"/>
      <point x="589" y="160" type="curve" smooth="yes"/>
      <point x="675" y="160"/>
      <point x="715" y="131"/>
      <point x="715" y="98" type="curve" smooth="yes"/>
      <point x="715" y="58"/>
      <point x="663" y="23"/>
      <point x="549" y="23" type="curve" smooth="yes"/>
      <point x="307" y="23"/>
      <point x="122" y="134"/>
      <point x="122" y="228" type="curve" smooth="yes"/>
      <point x="122" y="285"/>
      <point x="168" y="322"/>
      <point x="297" y="322" type="curve" smooth="yes"/>
      <point x="676" y="322" type="line"/>
      <point x="676" y="345" type="line"/>
      <point x="289" y="345" type="line" smooth="yes"/>
      <point x="151" y="345"/>
      <point x="97" y="296"/>
      <point x="97" y="231" type="curve" smooth="yes"/>
      <point x="97" y="117"/>
      <point x="298" y="0"/>
      <point x="548" y="0" type="curve" smooth="yes"/>
      <point x="685" y="0"/>
      <point x="739" y="47"/>
      <point x="739" y="99" type="curve" smooth="yes"/>
      <point x="739" y="144"/>
      <point x="696" y="183"/>
      <point x="589" y="183" type="curve" smooth="yes"/>
      <point x="474" y="183"/>
      <point x="356" y="137"/>
      <point x="275" y="70" type="curve"/>
    </contour>
    <contour>
      <point x="878" y="467" type="line"/>
      <point x="878" y="490" type="line"/>
      <point x="-10" y="490" type="line"/>
      <point x="-10" y="467" type="line"/>
    </contour>
    <contour>
      <point x="655" y="322" type="line"/>
      <point x="680" y="322" type="line"/>
      <point x="680" y="487" type="line"/>
      <point x="655" y="487" type="line"/>
    </contour>
  </outline>
</glyph>
<glyph name="grRRA" format="1">
  <advance width="828"/>
  <unicode hex="0A5C"/>
  <outline>
    <contour>
      <point x="838" y="467" type="line"/>
      <point x="838" y="490" type="line"/>
      <point x="-10" y="490" type="line"/>
      <point x="-10" y="467" type="line"/>
    </contour>
    <contour>
      <point x="638" y="-71" type="line"/>
      <point x="527" y="39" type="line"/>
      <point x="503" y="32" type="line"/>
      <point x="621" y="-86" type="line"/>
    </contour>
    <contour>
      <point x="235" y="-71" type="line"/>
      <point x="88" y="91" type="line"/>
      <point x="61" y="91" type="line"/>
      <point x="61" y="89" type="line"/>
      <point x="218" y="-86" type="line"/>
    </contour>
    <contour>
      <point x="324" y="37"/>
      <point x="212" y="57"/>
      <point x="68" y="111" type="curve"/>
      <point x="61" y="91" type="line"/>
      <point x="208" y="34"/>
      <point x="317" y="14"/>
      <point x="436" y="14" type="curve" smooth="yes"/>
      <point x="610" y="14"/>
      <point x="692" y="77"/>
      <point x="692" y="156" type="curve" smooth="yes"/>
      <point x="692" y="226"/>
      <point x="626" y="292"/>
      <point x="440" y="299" type="curve"/>
      <point x="440" y="292" type="line"/>
      <point x="605" y="299"/>
      <point x="640" y="381"/>
      <point x="640" y="463" type="curve" smooth="yes"/>
      <point x="640" y="479" type="line"/>
      <point x="615" y="479" type="line"/>
      <point x="615" y="462" type="line" smooth="yes"/>
      <point x="615" y="387"/>
      <point x="586" y="304"/>
      <point x="351" y="304" type="curve" smooth="yes"/>
      <point x="205" y="304" type="line"/>
      <point x="205" y="281" type="line"/>
      <point x="371" y="281" type="line" smooth="yes"/>
      <point x="600" y="281"/>
      <point x="667" y="217"/>
      <point x="667" y="156" type="curve" smooth="yes"/>
      <point x="667" y="91"/>
      <point x="592" y="37"/>
      <point x="436" y="37" type="curve" smooth="yes"/>
    </contour>
  </outline>
</glyph>
<glyph name="grEkonkar" format="1">
  <advance width="2505"/>
  <unicode hex="0A74"/>
  <outline>
    <contour>
      <point x="611" y="490" type="line"/>
      <point x="611" y="467" type="line"/>
      <point x="1561" y="467" type="line"/>
      <point x="1561" y="490" type="line"/>
    </contour>
    <contour>
      <point x="755" y="382" type="curve" smooth="yes"/>
      <point x="755" y="556"/>
      <point x="924" y="675"/>
      <point x="1134.0" y="675.0" type="curve" smooth="yes"/>
      <point x="1255" y="675"/>
      <point x="1339" y="643"/>
      <point x="1416" y="593" type="curve"/>
      <point x="1418" y="593" type="line"/>
      <point x="1572" y="722"/>
      <point x="1778" y="790"/>
      <point x="1955" y="790" type="curve" smooth="yes"/>
      <point x="2121" y="790"/>
      <point x="2285" y="738"/>
      <point x="2427" y="606" type="curve"/>
      <point x="2444" y="621" type="line"/>
      <point x="2302" y="755"/>
      <point x="2135" y="813"/>
      <point x="1955" y="813" type="curve" smooth="yes"/>
      <point x="1761" y="813"/>
      <point x="1552" y="737"/>
      <point x="1407" y="614" type="curve"/>
      <point x="1426" y="614" type="line"/>
      <point x="1353" y="661"/>
      <point x="1264" y="698"/>
      <point x="1132" y="698" type="curve" smooth="yes"/>
      <point x="911" y="698"/>
      <point x="730" y="572"/>
      <point x="730" y="382" type="curve" smooth="yes"/>
      <point x="730" y="167"/>
      <point x="912" y="10"/>
      <point x="1150" y="10" type="curve" smooth="yes"/>
      <point x="1304" y="10"/>
      <point x="1371" y="70"/>
      <point x="1371" y="138" type="curve" smooth="yes"/>
      <point x="1371" y="193"/>
      <point x="1325" y="245"/>
      <point x="1229" y="255" type="curve"/>
      <point x="1228" y="247" type="line"/>
      <point x="1359" y="256"/>
      <point x="1461" y="338"/>
      <point x="1461" y="468" type="curve"/>
      <point x="1436" y="468" type="line"/>
      <point x="1436" y="352"/>
      <point x="1349" y="263"/>
      <point x="1158" y="263" type="curve" smooth="yes"/>
      <point x="767" y="263" type="line"/>
      <point x="767" y="240" type="line"/>
      <point x="1163" y="240" type="line" smooth="yes"/>
      <point x="1289" y="240"/>
      <point x="1347" y="189"/>
      <point x="1347" y="138" type="curve" smooth="yes"/>
      <point x="1347" y="83"/>
      <point x="1287" y="33"/>
      <point x="1150" y="33" type="curve" smooth="yes"/>
      <point x="930" y="33"/>
      <point x="755" y="175"/>
    </contour>
    <component base="grOne"/>
  </outline>
</glyph>
<glyph name="quoteleft" format="1">
  <advance width="338"/>
  <unicode hex="2018"/>
  <outline>
    <contour>
      <point x="180" y="366"/>
      <point x="199" y="382"/>
      <point x="199" y="401" type="curve" smooth="yes"/>
      <point x="199" y="419"/>
      <point x="180" y="431"/>
      <point x="155" y="431" type="curve" smooth="yes"/>
      <point x="140" y="431"/>
      <point x="127" y="430"/>
      <point x="115" y="426" type="curve"/>
      <point x="122" y="470"/>
      <point x="164" y="515"/>
      <point x="214" y="560" type="curve"/>
      <point x="202" y="572" type="line"/>
      <point x="140" y="525"/>
      <point x="94" y="461"/>
      <point x="94" y="419" type="curve" smooth="yes"/>
      <point x="94" y="386"/>
      <point x="113" y="366"/>
      <point x="148" y="366" type="curve" smooth="yes"/>
    </contour>
  </outline>
</glyph>
<glyph name="daggerdbl" format="1">
  <advance width="428"/>
  <unicode hex="2021"/>
  <outline>
    <contour>
      <point x="378" y="419"/>
      <point x="391" y="430"/>
      <point x="391" y="449" type="curve"/>
      <point x="391" y="469"/>
      <point x="378" y="477"/>
      <point x="366" y="477" type="curve" smooth="yes"/>
      <point x="350" y="477"/>
      <point x="312" y="461"/>
      <point x="282" y="458" type="curve" smooth="yes"/>
      <point x="258" y="456" type="line"/>
      <point x="258" y="442" type="line"/>
      <point x="282" y="440" type="line" smooth="yes"/>
      <point x="311" y="436"/>
      <point x="350" y="419"/>
      <point x="366" y="419" type="curve" smooth="yes"/>
    </contour>
    <contour>
      <point x="233" y="64"/>
      <point x="242" y="75"/>
      <point x="242" y="89" type="curve" smooth="yes"/>
      <point x="242" y="104"/>
      <point x="225" y="143"/>
      <point x="222" y="173" type="curve" smooth="yes"/>
      <point x="220" y="196" type="line"/>
      <point x="206" y="196" type="line"/>
      <point x="204" y="173" type="line" smooth="yes"/>
      <point x="201" y="142"/>
      <point x="185" y="104"/>
      <point x="185" y="89" type="curve" smooth="yes"/>
      <point x="185" y="75"/>
      <point x="192" y="64"/>
      <point x="214" y="63" type="curve"/>
    </contour>
    <contour>
      <point x="78" y="210"/>
      <point x="116" y="226"/>
      <point x="147" y="230" type="curve" smooth="yes"/>
      <point x="170" y="231" type="line"/>
      <point x="170" y="246" type="line"/>
      <point x="147" y="248" type="line" smooth="yes"/>
      <point x="117" y="250"/>
      <point x="78" y="268"/>
      <point x="64" y="268" type="curve" smooth="yes"/>
      <point x="50" y="268"/>
      <point x="39" y="259"/>
      <point x="36" y="240" type="curve"/>
      <point x="39" y="218"/>
      <point x="50" y="210"/>
      <point x="64" y="210" type="curve" smooth="yes"/>
    </contour>
    <contour>
      <point x="78" y="419"/>
      <point x="117" y="436"/>
      <point x="147" y="440" type="curve" smooth="yes"/>
      <point x="170" y="442" type="line"/>
      <point x="170" y="456" type="line"/>
      <point x="147" y="458" type="line" smooth="yes"/>
      <point x="116" y="461"/>
      <point x="78" y="477"/>
      <point x="64" y="477" type="curve" smooth="yes"/>
      <point x="50" y="477"/>
      <point x="39" y="469"/>
      <point x="36" y="449" type="curve"/>
      <point x="39" y="430"/>
      <point x="50" y="419"/>
      <point x="64" y="419" type="curve" smooth="yes"/>
    </contour>
    <contour>
      <point x="220" y="280" type="line"/>
      <point x="222" y="298"/>
      <point x="229" y="330"/>
      <point x="229" y="344" type="curve" smooth="yes"/>
      <point x="229" y="358"/>
      <point x="222" y="390"/>
      <point x="220" y="408" type="curve"/>
      <point x="206" y="408" type="line"/>
      <point x="204" y="390"/>
      <point x="197" y="358"/>
      <point x="197" y="344" type="curve" smooth="yes"/>
      <point x="197" y="330"/>
      <point x="204" y="298"/>
      <point x="206" y="280" type="curve"/>
    </contour>
    <contour>
      <point x="378" y="210"/>
      <point x="391" y="218"/>
      <point x="391" y="240" type="curve"/>
      <point x="391" y="259"/>
      <point x="378" y="268"/>
      <point x="366" y="268" type="curve" smooth="yes"/>
      <point x="350" y="268"/>
      <point x="311" y="250"/>
      <point x="282" y="248" type="curve" smooth="yes"/>
      <point x="258" y="246" type="line"/>
      <point x="258" y="231" type="line"/>
      <point x="282" y="230" type="line" smooth="yes"/>
      <point x="312" y="226"/>
      <point x="350" y="210"/>
      <point x="366" y="210" type="curve" smooth="yes"/>
    </contour>
    <contour>
      <point x="220" y="491" type="line"/>
      <point x="222" y="515" type="line" smooth="yes"/>
      <point x="225" y="544"/>
      <point x="242" y="584"/>
      <point x="242" y="599" type="curve" smooth="yes"/>
      <point x="242" y="611"/>
      <point x="233" y="624"/>
      <point x="214" y="625" type="curve"/>
      <point x="192" y="624"/>
      <point x="185" y="611"/>
      <point x="185" y="599" type="curve" smooth="yes"/>
      <point x="185" y="584"/>
      <point x="201" y="545"/>
      <point x="204" y="515" type="curve" smooth="yes"/>
      <point x="206" y="491" type="line"/>
    </contour>
  </outline>
</glyph>
<glyph name="guilsinglleft" format="1">
  <advance width="430"/>
  <unicode hex="2039"/>
  <outline>
    <contour>
      <point x="215" y="180"/>
      <point x="319" y="274"/>
      <point x="360" y="373" type="curve"/>
      <point x="340" y="382" type="line"/>
      <point x="301" y="288"/>
      <point x="202" y="195"/>
      <point x="42" y="195" type="curve" smooth="yes"/>
      <point x="30" y="195" type="line"/>
      <point x="30" y="173" type="line"/>
      <point x="42" y="173" type="line" smooth="yes"/>
      <point x="202" y="173"/>
      <point x="301" y="80"/>
      <point x="340" y="-15" type="curve"/>
      <point x="360" y="-6" type="line"/>
      <point x="319" y="94"/>
      <point x="215" y="188"/>
      <point x="66" y="188" type="curve"/>
      <point x="66" y="180" type="line"/>
    </contour>
  </outline>
</glyph>
<glyph name="summation" format="1">
  <advance width="676"/>
  <unicode hex="2211"/>
  <outline>
    <contour>
      <point x="571" y="-74" type="line"/>
      <point x="77" y="-74" type="line"/>
      <point x="45" y="-92" type="line"/>
      <point x="47" y="-99" type="line"/>
      <point x="571" y="-96" type="line"/>
    </contour>
    <contour>
      <point x="47" y="617" type="line"/>
      <point x="45" y="610" type="line"/>
      <point x="77" y="591" type="line"/>
      <point x="571" y="591" type="line"/>
      <point x="571" y="615" type="line"/>
    </contour>
    <contour>
      <point x="77" y="616" type="line"/>
      <point x="47" y="616" type="line"/>
      <point x="45" y="610" type="line"/>
      <point x="336" y="261" type="line"/>
      <point x="45" y="-92" type="line"/>
      <point x="47" y="-98" type="line"/>
      <point x="75" y="-98" type="line"/>
      <point x="367" y="259" type="line"/>
      <point x="367" y="265" type="line"/>
    </contour>
    <contour>
      <point x="548" y="442" type="line"/>
      <point x="571" y="442" type="line"/>
      <point x="571" y="615" type="line"/>
      <point x="548" y="615" type="line"/>
    </contour>
    <contour>
      <point x="548" y="-96" type="line"/>
      <point x="571" y="-96" type="line"/>
      <point x="571" y="75" type="line"/>
      <point x="548" y="75" type="line"/>
    </contour>
  </outline>
</glyph>
<glyph name="lozenge" format="1">
  <advance width="608.0"/>
  <unicode hex="25CA"/>
  <outline>
    <contour>
      <point x="310" y="-77" type="line"/>
      <point x="537" y="238" type="line"/>
      <point x="310" y="552" type="line"/>
      <point x="307" y="552" type="line"/>
      <point x="70" y="238" type="line"/>
      <point x="307" y="-77" type="line"/>
    </contour>
    <contour>
      <point x="100" y="238" type="line"/>
      <point x="308" y="515" type="line"/>
      <point x="508" y="238" type="line"/>
      <point x="308" y="-40" type="line"/>
    </contour>
  </outline>
</glyph>
<glyph name="Adieresis.alt" format="1">
  <advance width="1031"/>
  <outline>
    <contour>
      <point x="513" y="531" type="line"/>
      <point x="156" y="12" type="line"/>
      <point x="185" y="12" type="line"/>
      <point x="523" y="502" type="line"/>
      <point x="511" y="502" type="line"/>
      <point x="847" y="12" type="line"/>
      <point x="877" y="12" type="line"/>
      <point x="520" y="531" type="line"/>
    </contour>
    <contour>
      <point x="1031" y="-1" type="line"/>
      <point x="1031" y="22" type="line"/>
      <point x="693" y="22" type="line"/>
      <point x="693" y="-1" type="line"/>
    </contour>
    <contour>
      <point x="337" y="-1" type="line"/>
      <point x="337" y="22" type="line"/>
      <point x="0" y="22" type="line"/>
      <point x="0" y="-1" type="line"/>
    </contour>
    <contour>
      <point x="724" y="205" type="line"/>
      <point x="310" y="205" type="line"/>
      <point x="291" y="183" type="line"/>
      <point x="738" y="183" type="line"/>
    </contour>
    <contour>
      <point x="650" y="635"/>
      <point x="665" y="648"/>
      <point x="665" y="664" type="curve"/>
      <point x="665" y="681"/>
      <point x="650" y="693"/>
      <point x="620" y="693" type="curve"/>
      <point x="593" y="693"/>
      <point x="575" y="681"/>
      <point x="575" y="664" type="curve"/>
      <point x="575" y="648"/>
      <point x="593" y="635"/>
      <point x="620" y="635" type="curve"/>
    </contour>
    <contour>
      <point x="427" y="635"/>
      <point x="443" y="648"/>
      <point x="443" y="664" type="curve"/>
      <point x="443" y="681"/>
      <point x="427" y="693"/>
      <point x="398" y="693" type="curve"/>
      <point x="369" y="693"/>
      <point x="353" y="681"/>
      <point x="353" y="664" type="curve"/>
      <point x="353" y="648"/>
      <point x="369" y="635"/>
      <point x="398" y="635" type="curve"/>
    </contour>
    <contour>
      <point x="605" y="751" type="move" name="hook"/>
    </contour>
    <contour>
      <point x="1033" y="165" type="move" name="ogonek"/>
    </contour>
    <contour>
      <point x="513" y="686" type="move" name="top"/>
    </contour>
    <contour>
      <point x="515" y="165" type="move" name="bottom"/>
    </contour>
  </outline>
</glyph>
<glyph name="Be-cy" format="1">
  <advance width="926"/>
  <outline>
    <contour>
      <point x="255" y="263" type="line"/>
      <point x="255" y="240" type="line"/>
      <point x="659" y="239" type="line" smooth="yes"/>
      <point x="758" y="239"/>
      <point x="839" y="206"/>
      <point x="839" y="129" type="curve" smooth="yes"/>
      <point x="839" y="54"/>
      <point x="771" y="22"/>
      <point x="669" y="22" type="curve" smooth="yes"/>
      <point x="56" y="22" type="line"/>
      <point x="56" y="-1" type="line"/>
      <point x="676" y="-1" type="line" smooth="yes"/>
      <point x="793" y="-1"/>
      <point x="864" y="43"/>
      <point x="864" y="127" type="curve" smooth="yes"/>
      <point x="864" y="215"/>
      <point x="793" y="263"/>
      <point x="676" y="263" type="curve"/>
    </contour>
    <contour>
      <point x="829" y="497" type="line"/>
      <point x="829" y="336" type="line"/>
      <point x="854" y="336" type="line"/>
      <point x="854" y="520" type="line"/>
      <point x="56" y="520" type="line"/>
      <point x="56" y="497" type="line"/>
    </contour>
    <contour>
      <point x="264" y="12" type="line"/>
      <point x="264" y="507" type="line"/>
      <point x="239" y="507" type="line"/>
      <point x="239" y="12" type="line"/>
    </contour>
  </outline>
</glyph>
<glyph name="Gcommaaccent.alt" format="1">
  <advance width="902"/>
  <outline>
    <contour>
      <point x="666" y="-11"/>
      <point x="812" y="105"/>
      <point x="812" y="251" type="curve" smooth="yes"/>
      <point x="812" y="254" type="line"/>
      <point x="437" y="254" type="line"/>
      <point x="437" y="230" type="line"/>
      <point x="787" y="230" type="line"/>
      <point x="774" y="117"/>
      <point x="659" y="12"/>
      <point x="437" y="12" type="curve" smooth="yes"/>
      <point x="255" y="12"/>
      <point x="106" y="106"/>
      <point x="106" y="259" type="curve" smooth="yes"/>
      <point x="106" y="414"/>
      <point x="260" y="507"/>
      <point x="445" y="507" type="curve" smooth="yes"/>
      <point x="584" y="507"/>
      <point x="701" y="461"/>
      <point x="792" y="330" type="curve"/>
      <point x="803" y="331" type="line"/>
      <point x="803" y="520" type="line"/>
      <point x="780" y="520" type="line"/>
      <point x="780" y="360" type="line"/>
      <point x="792" y="360" type="line"/>
      <point x="722" y="461"/>
      <point x="607" y="531"/>
      <point x="445" y="531" type="curve" smooth="yes"/>
      <point x="252" y="531"/>
      <point x="81" y="431"/>
      <point x="81" y="259" type="curve" smooth="yes"/>
      <point x="81" y="88"/>
      <point x="245" y="-11"/>
      <point x="437" y="-11" type="curve" smooth="yes"/>
    </contour>
    <contour>
      <point x="490" y="-115"/>
      <point x="470" y="-96"/>
      <point x="441" y="-96" type="curve" smooth="yes"/>
      <point x="413" y="-96"/>
      <point x="396" y="-111"/>
      <point x="396" y="-128" type="curve" smooth="yes"/>
      <point x="396" y="-145"/>
      <point x="413" y="-156"/>
      <point x="435" y="-156" type="curve" smooth="yes"/>
      <point x="448" y="-156"/>
      <point x="459" y="-153"/>
      <point x="470" y="-152" type="curve"/>
      <point x="464" y="-196"/>
      <point x="431" y="-232"/>
      <point x="381" y="-277" type="curve"/>
      <point x="392" y="-289" type="line"/>
      <point x="454" y="-242"/>
      <point x="490" y="-187"/>
      <point x="490" y="-143" type="curve" smooth="yes"/>
    </contour>
    <contour>
      <point x="441" y="697" type="move" name="top"/>
    </contour>
    <contour>
      <point x="441" y="155" type="move" name="bottom"/>
    </contour>
  </outline>
</glyph>
<glyph name="W.bold" format="1">
  <advance width="1260"/>
  <outline>
    <contour>
      <point x="451" y="-11" type="line"/>
      <point x="787" y="507" type="line"/>
      <point x="759" y="507" type="line"/>
      <point x="451" y="27" type="line"/>
      <point x="182" y="507" type="line"/>
      <point x="152" y="507" type="line"/>
      <point x="445" y="-11" type="line"/>
    </contour>
    <contour>
      <point x="319" y="499" type="line"/>
      <point x="319" y="520" type="line"/>
      <point x="-5" y="520" type="line"/>
      <point x="-5" y="499" type="line"/>
    </contour>
    <contour>
      <point x="816" y="-11" type="line"/>
      <point x="1108" y="507" type="line"/>
      <point x="1083" y="507" type="line"/>
      <point x="812" y="27" type="line"/>
      <point x="503" y="507" type="line"/>
      <point x="476" y="507" type="line"/>
      <point x="809" y="-11" type="line"/>
    </contour>
    <contour>
      <point x="864" y="499" type="line"/>
      <point x="864" y="520" type="line"/>
      <point x="393" y="520" type="line"/>
      <point x="393" y="499" type="line"/>
    </contour>
    <contour>
      <point x="1265" y="499" type="line"/>
      <point x="1265" y="520" type="line"/>
      <point x="942" y="520" type="line"/>
      <point x="942" y="499" type="line"/>
    </contour>
    <contour>
      <point x="637" y="686" type="move" name="top"/>
    </contour>
    <contour>
      <point x="630" y="165" type="move" name="bottom"/>
    </contour>
  </outline>
</glyph>
<glyph name="atilde.alt" format="1">
  <advance width="818"/>
  <outline>
    <contour>
      <point x="776" y="-7"/>
      <point x="799" y="53"/>
      <point x="799" y="102" type="curve" smooth="yes"/>
      <point x="799" y="116" type="line"/>
      <point x="774" y="116" type="line"/>
      <point x="774" y="102" type="line" smooth="yes"/>
      <point x="774" y="53"/>
      <point x="752" y="17"/>
      <point x="711" y="17" type="curve" smooth="yes"/>
      <point x="663" y="17"/>
      <point x="644" y="53"/>
      <point x="644" y="113" type="curve"/>
      <point x="644" y="196" type="line" smooth="yes"/>
      <point x="644" y="297"/>
      <point x="568" y="366"/>
      <point x="410" y="366" type="curve" smooth="yes"/>
      <point x="311" y="366"/>
      <point x="209" y="346"/>
      <point x="100" y="309" type="curve"/>
      <point x="107" y="285" type="line"/>
      <point x="210" y="318"/>
      <point x="307" y="343"/>
      <point x="410" y="343" type="curve" smooth="yes"/>
      <point x="556" y="343"/>
      <point x="619" y="281"/>
      <point x="619" y="196" type="curve" smooth="yes"/>
      <point x="619" y="113" type="line"/>
      <point x="619" y="43"/>
      <point x="645" y="-7"/>
      <point x="708" y="-7" type="curve" smooth="yes"/>
    </contour>
    <contour>
      <point x="393" y="-11"/>
      <point x="521" y="18"/>
      <point x="630" y="75" type="curve"/>
      <point x="630" y="97" type="line"/>
      <point x="516" y="43"/>
      <point x="391" y="12"/>
      <point x="283" y="12" type="curve" smooth="yes"/>
      <point x="190" y="12"/>
      <point x="110" y="32"/>
      <point x="110" y="95" type="curve"/>
      <point x="110" y="161"/>
      <point x="202" y="182"/>
      <point x="327" y="182" type="curve" smooth="yes"/>
      <point x="431" y="182"/>
      <point x="543" y="167"/>
      <point x="630" y="151" type="curve"/>
      <point x="630" y="175" type="line"/>
      <point x="543" y="190"/>
      <point x="432" y="205"/>
      <point x="311" y="205" type="curve" smooth="yes"/>
      <point x="189" y="205"/>
      <point x="85" y="177"/>
      <point x="85" y="95" type="curve"/>
      <point x="85" y="15"/>
      <point x="161" y="-11"/>
      <point x="283" y="-11" type="curve" smooth="yes"/>
    </contour>
    <contour>
      <point x="540" y="473"/>
      <point x="577" y="518"/>
      <point x="588" y="586" type="curve"/>
      <point x="567" y="589" type="line"/>
      <point x="556" y="522"/>
      <point x="521" y="496"/>
      <point x="483" y="496" type="curve" smooth="yes"/>
      <point x="449" y="496"/>
      <point x="418" y="516"/>
      <point x="385" y="539" type="curve" smooth="yes"/>
      <point x="350" y="563"/>
      <point x="318" y="589"/>
      <point x="272" y="589" type="curve" smooth="yes"/>
      <point x="212" y="589"/>
      <point x="175" y="544"/>
      <point x="163" y="475" type="curve"/>
      <point x="185" y="471" type="line"/>
      <point x="195" y="539"/>
      <point x="230" y="567"/>
      <point x="270" y="567" type="curve" smooth="yes"/>
      <point x="305" y="567"/>
      <point x="334" y="547"/>
      <point x="366" y="523" type="curve" smooth="yes"/>
      <point x="401" y="499"/>
      <point x="436" y="473"/>
      <point x="480" y="473" type="curve" smooth="yes"/>
    </contour>
    <contour>
      <point x="767" y="183" type="move" name="ogonek"/>
    </contour>
    <contour>
      <point x="287" y="155" type="move" name="bottom"/>
    </contour>
    <contour>
      <point x="385" y="532" type="move" name="top"/>
    </contour>
  </outline>
</glyph>
<glyph name="caroncomb.alt" format="1">
  <advance width="222"/>
  <outline>
    <contour>
      <point x="160" y="549"/>
      <point x="134" y="487"/>
      <point x="68" y="411" type="curve"/>
      <point x="81" y="400" type="line"/>
      <point x="157" y="475"/>
      <point x="189" y="547"/>
      <point x="187" y="625" type="curve"/>
      <point x="160" y="627" type="line"/>
    </contour>
    <contour>
      <point x="36" y="606" type="move" name="_topright"/>
    </contour>
  </outline>
</glyph>
<glyph name="cedillacomb" format="1">
  <advance width="348"/>
  <outline>
    <contour>
      <point x="258" y="-177"/>
      <point x="297" y="-155"/>
      <point x="297" y="-117" type="curve" smooth="yes"/>
      <point x="297" y="-80"/>
      <point x="260" y="-58"/>
      <point x="204" y="-58" type="curve" smooth="yes"/>
      <point x="182" y="-58"/>
      <point x="167" y="-60"/>
      <point x="151" y="-61" type="curve"/>
      <point x="177" y="14" type="line"/>
      <point x="157" y="14" type="line"/>
      <point x="124" y="-77" type="line"/>
      <point x="129" y="-83" type="line"/>
      <point x="150" y="-81"/>
      <point x="172" y="-79"/>
      <point x="204" y="-79" type="curve" smooth="yes"/>
      <point x="250" y="-79"/>
      <point x="274" y="-93"/>
      <point x="274" y="-117" type="curve" smooth="yes"/>
      <point x="274" y="-143"/>
      <point x="242" y="-155"/>
      <point x="187" y="-155" type="curve" smooth="yes"/>
      <point x="126" y="-155"/>
      <point x="82" y="-138"/>
      <point x="57" y="-126" type="curve"/>
      <point x="48" y="-147" type="line"/>
      <point x="76" y="-159"/>
      <point x="121" y="-177"/>
      <point x="187" y="-177" type="curve" smooth="yes"/>
    </contour>
    <contour>
      <point x="173" y="165" type="move" name="_bottom"/>
    </contour>
  </outline>
</glyph>
<glyph name="divisionslash" format="1">
  <advance width="461"/>
  <outline>
    <contour>
      <point x="426" y="611" type="line"/>
      <point x="395" y="611" type="line"/>
      <point x="21" y="-131" type="line"/>
      <point x="51" y="-131" type="line"/>
    </contour>
  </outline>
</glyph>
<glyph name="four.dnom" format="1">
  <advance width="408"/>
  <outline>
    <contour>
      <point x="306" y="278" type="line"/>
      <point x="274" y="278" type="line"/>
      <point x="30" y="88" type="line"/>
      <point x="56" y="82" type="line"/>
    </contour>
    <contour>
      <point x="398" y="66" type="line"/>
      <point x="398" y="88" type="line"/>
      <point x="30" y="88" type="line"/>
      <point x="30" y="66" type="line"/>
    </contour>
    <contour>
      <point x="282" y="-11" type="line"/>
      <point x="306" y="-11" type="line"/>
      <point x="306" y="278" type="line"/>
      <point x="282" y="278" type="line"/>
    </contour>
  </outline>
</glyph>
<glyph name="gdotaccent.alt" format="1">
  <advance width="849"/>
  <outline>
    <contour>
      <point x="603" y="-212"/>
      <point x="699" y="-123"/>
      <point x="698" y="17" type="curve"/>
      <point x="698" y="357" type="line"/>
      <point x="682" y="357" type="line"/>
      <point x="673" y="291" type="line"/>
      <point x="673" y="15" type="line"/>
      <point x="673" y="-108"/>
      <point x="587" y="-188"/>
      <point x="423" y="-188" type="curve" smooth="yes"/>
      <point x="316" y="-188"/>
      <point x="194" y="-156"/>
      <point x="119" y="-121" type="curve"/>
      <point x="112" y="-145" type="line"/>
      <point x="186" y="-178"/>
      <point x="310" y="-212"/>
      <point x="421" y="-212" type="curve" smooth="yes"/>
    </contour>
    <contour>
      <point x="450" y="-12"/>
      <point x="572" y="52"/>
      <point x="688" y="135" type="curve"/>
      <point x="688" y="161" type="line"/>
      <point x="562" y="72"/>
      <point x="433" y="12"/>
      <point x="319" y="12" type="curve"/>
      <point x="185" y="12"/>
      <point x="106" y="72"/>
      <point x="106" y="160" type="curve"/>
      <point x="106" y="271"/>
      <point x="232" y="343"/>
      <point x="385" y="342" type="curve"/>
      <point x="503" y="343"/>
      <point x="617" y="300"/>
      <point x="692" y="259" type="curve"/>
      <point x="692" y="283" type="line"/>
      <point x="619" y="324"/>
      <point x="513" y="366"/>
      <point x="385" y="366" type="curve"/>
      <point x="220" y="366"/>
      <point x="81" y="289"/>
      <point x="81" y="160" type="curve"/>
      <point x="81" y="52"/>
      <point x="176" y="-12"/>
      <point x="319" y="-12" type="curve"/>
    </contour>
    <contour>
      <point x="442" y="480"/>
      <point x="458" y="493"/>
      <point x="458" y="510" type="curve"/>
      <point x="458" y="528"/>
      <point x="442" y="541"/>
      <point x="410" y="541" type="curve"/>
      <point x="380" y="541"/>
      <point x="363" y="528"/>
      <point x="363" y="510" type="curve"/>
      <point x="363" y="493"/>
      <point x="380" y="480"/>
      <point x="410" y="480" type="curve"/>
    </contour>
    <contour>
      <point x="410" y="532" type="move" name="top"/>
    </contour>
    <contour>
      <point x="410" y="154" type="move" name="bottom"/>
    </contour>
  </outline>
</glyph>
<glyph name="grVAc2" format="1">
  <advance width="0"/>
  <outline>
    <contour>
      <point x="-394.0" y="-161.0" type="line"/>
      <point x="-418" y="-161" type="line"/>
      <point x="-418" y="-177" type="line" smooth="yes"/>
      <point x="-418" y="-196"/>
      <point x="-411" y="-215"/>
      <point x="-399" y="-227" type="curve" smooth="yes"/>
      <point x="-380" y="-246"/>
      <point x="-349" y="-257"/>
      <point x="-293" y="-257" type="curve" smooth="yes"/>
      <point x="-188" y="-257" type="line"/>
      <point x="-188" y="-236" type="line"/>
      <point x="-292" y="-236" type="line" smooth="yes"/>
      <point x="-341" y="-236"/>
      <point x="-367" y="-227"/>
      <point x="-381" y="-213" type="curve" smooth="yes"/>
      <point x="-390" y="-204"/>
      <point x="-394" y="-194"/>
      <point x="-394" y="-182" type="curve" smooth="yes"/>
    </contour>
    <contour>
      <point x="-188.0" y="-178.0" type="line"/>
      <point x="-188.0" y="-156.0" type="line"/>
      <point x="-411.0" y="-156.0" type="line" smooth="yes"/>
      <point x="-450.0" y="-156.0"/>
      <point x="-466" y="-151"/>
      <point x="-476" y="-141" type="curve" smooth="yes"/>
      <point x="-480" y="-137"/>
      <point x="-483" y="-131"/>
      <point x="-483" y="-124" type="curve" smooth="yes"/>
      <point x="-483" y="-117"/>
      <point x="-481" y="-112"/>
      <point x="-475" y="-106" type="curve" smooth="yes"/>
      <point x="-468" y="-99"/>
      <point x="-455" y="-94"/>
      <point x="-426.0" y="-94.0" type="curve" smooth="yes"/>
      <point x="-188.0" y="-94.0" type="line"/>
      <point x="-188.0" y="-72.0" type="line"/>
      <point x="-426.0" y="-72.0" type="line" smooth="yes"/>
      <point x="-463" y="-72"/>
      <point x="-482" y="-80"/>
      <point x="-493" y="-91" type="curve" smooth="yes"/>
      <point x="-503" y="-101"/>
      <point x="-506" y="-110"/>
      <point x="-506" y="-123" type="curve" smooth="yes"/>
      <point x="-506" y="-137"/>
      <point x="-501" y="-148"/>
      <point x="-493" y="-156" type="curve" smooth="yes"/>
      <point x="-478" y="-171"/>
      <point x="-455.0" y="-178.0"/>
      <point x="-411.0" y="-178.0" type="curve" smooth="yes"/>
    </contour>
  </outline>
</glyph>
<glyph name="guillemetleft" format="1">
  <advance width="702"/>
  <outline>
    <contour>
      <point x="632" y="-6" type="line"/>
      <point x="596" y="89"/>
      <point x="486" y="188"/>
      <point x="368" y="188" type="curve"/>
      <point x="368" y="180" type="line"/>
      <point x="486" y="180"/>
      <point x="596" y="279"/>
      <point x="632" y="373" type="curve"/>
      <point x="612" y="382" type="line"/>
      <point x="578" y="293"/>
      <point x="475" y="195"/>
      <point x="344" y="195" type="curve" smooth="yes"/>
      <point x="342" y="195" type="line"/>
      <point x="342" y="173" type="line"/>
      <point x="344" y="173" type="line" smooth="yes"/>
      <point x="475" y="173"/>
      <point x="578" y="75"/>
      <point x="612" y="-15" type="curve"/>
    </contour>
    <contour>
      <point x="360" y="-6" type="line"/>
      <point x="319" y="94"/>
      <point x="215" y="188"/>
      <point x="66" y="188" type="curve"/>
      <point x="66" y="180" type="line"/>
      <point x="215" y="180"/>
      <point x="319" y="274"/>
      <point x="360" y="373" type="curve"/>
      <point x="340" y="382" type="line"/>
      <point x="301" y="288"/>
      <point x="202" y="195"/>
      <point x="42" y="195" type="curve" smooth="yes"/>
      <point x="30" y="195" type="line"/>
      <point x="30" y="173" type="line"/>
      <point x="42" y="173" type="line" smooth="yes"/>
      <point x="202" y="173"/>
      <point x="301" y="80"/>
      <point x="340" y="-15" type="curve"/>
    </contour>
  </outline>
</glyph>
<glyph name="liraTurkish" format="1">
  <advance width="736"/>
  <outline>
    <contour>
      <point x="216" y="-1" type="line"/>
      <point x="301" y="-1" type="line" smooth="yes"/>
      <point x="531" y="-1"/>
      <point x="629" y="84"/>
      <point x="667" y="218" type="curve"/>
      <point x="644" y="224" type="line"/>
      <point x="607" y="98"/>
      <point x="515" y="22"/>
      <point x="299" y="22" type="curve" smooth="yes"/>
      <point x="241" y="22" type="line"/>
      <point x="241" y="480" type="line"/>
      <point x="216" y="480" type="line"/>
    </contour>
    <contour>
      <point x="548" y="293" type="line"/>
      <point x="548" y="318" type="line"/>
      <point x="65" y="157" type="line"/>
      <point x="65" y="132" type="line"/>
    </contour>
    <contour>
      <point x="550" y="418" type="line"/>
      <point x="550" y="443" type="line"/>
      <point x="67" y="283" type="line"/>
      <point x="67" y="258" type="line"/>
    </contour>
  </outline>
</glyph>
<glyph name="literSign" format="1">
  <advance width="492"/>
  <outline>
    <contour>
      <point x="284" y="-11"/>
      <point x="350" y="10"/>
      <point x="400" y="38" type="curve"/>
      <point x="390" y="58" type="line"/>
      <point x="337" y="31"/>
      <point x="279" y="12"/>
      <point x="226" y="12" type="curve" smooth="yes"/>
      <point x="136" y="12"/>
      <point x="94" y="60"/>
      <point x="94" y="123" type="curve" smooth="yes"/>
      <point x="94" y="144"/>
      <point x="100" y="176"/>
      <point x="109" y="215" type="curve" smooth="yes"/>
      <point x="150" y="371" type="line" smooth="yes"/>
      <point x="175" y="464"/>
      <point x="230" y="534"/>
      <point x="312" y="534" type="curve" smooth="yes"/>
      <point x="385" y="534"/>
      <point x="421" y="490"/>
      <point x="421" y="422" type="curve" smooth="yes"/>
      <point x="421" y="316"/>
      <point x="326" y="233"/>
      <point x="227" y="233" type="curve" smooth="yes"/>
      <point x="155" y="233"/>
      <point x="130" y="268"/>
      <point x="112" y="286" type="curve"/>
      <point x="109" y="264" type="line"/>
      <point x="122" y="248"/>
      <point x="152" y="210"/>
      <point x="227" y="210" type="curve" smooth="yes"/>
      <point x="328" y="210"/>
      <point x="446" y="296"/>
      <point x="446" y="423" type="curve" smooth="yes"/>
      <point x="446" y="501"/>
      <point x="400" y="556"/>
      <point x="312" y="556" type="curve" smooth="yes"/>
      <point x="214" y="556"/>
      <point x="154" y="480"/>
      <point x="125" y="371" type="curve" smooth="yes"/>
      <point x="85" y="218" type="line" smooth="yes"/>
      <point x="74" y="177"/>
      <point x="69" y="143"/>
      <point x="69" y="120" type="curve" smooth="yes"/>
      <point x="69" y="45"/>
      <point x="120" y="-11"/>
      <point x="225" y="-11" type="curve" smooth="yes"/>
    </contour>
  </outline>
</glyph>
<glyph name="three.numr" format="1">
  <advance width="452"/>
  <outline>
    <contour>
      <point x="337" y="191"/>
      <point x="402" y="221"/>
      <point x="402" y="266" type="curve" smooth="yes"/>
      <point x="402" y="325"/>
      <point x="326" y="335"/>
      <point x="239" y="335" type="curve"/>
      <point x="239" y="329" type="line"/>
      <point x="327" y="329"/>
      <point x="386" y="357"/>
      <point x="386" y="404" type="curve" smooth="yes"/>
      <point x="386" y="455"/>
      <point x="325" y="481"/>
      <point x="242" y="481" type="curve" smooth="yes"/>
      <point x="172" y="481"/>
      <point x="109" y="465"/>
      <point x="59" y="439" type="curve"/>
      <point x="69" y="420" type="line"/>
      <point x="114" y="443"/>
      <point x="172" y="460"/>
      <point x="242" y="460" type="curve" smooth="yes"/>
      <point x="315" y="460"/>
      <point x="365" y="439"/>
      <point x="365" y="404" type="curve" smooth="yes"/>
      <point x="365" y="369"/>
      <point x="319" y="341"/>
      <point x="226" y="341" type="curve" smooth="yes"/>
      <point x="130" y="341" type="line"/>
      <point x="130" y="323" type="line"/>
      <point x="226" y="323" type="line" smooth="yes"/>
      <point x="333" y="323"/>
      <point x="381" y="306"/>
      <point x="381" y="266" type="curve" smooth="yes"/>
      <point x="381" y="231"/>
      <point x="318" y="211"/>
      <point x="236" y="211" type="curve" smooth="yes"/>
      <point x="144" y="211"/>
      <point x="86" y="241"/>
      <point x="62" y="260" type="curve"/>
      <point x="50" y="243" type="line"/>
      <point x="78" y="223"/>
      <point x="140" y="191"/>
      <point x="236" y="191" type="curve" smooth="yes"/>
    </contour>
  </outline>
</glyph>
<glyph name="w.bold" format="1">
  <advance width="1028"/>
  <outline>
    <contour>
      <point x="360" y="-12" type="line"/>
      <point x="628" y="348" type="line"/>
      <point x="601" y="348" type="line"/>
      <point x="360" y="18" type="line"/>
      <point x="147" y="348" type="line"/>
      <point x="119" y="348" type="line"/>
      <point x="354" y="-12" type="line"/>
    </contour>
    <contour>
      <point x="669" y="-12" type="line"/>
      <point x="904" y="348" type="line"/>
      <point x="879" y="348" type="line"/>
      <point x="667" y="18" type="line"/>
      <point x="431" y="348" type="line"/>
      <point x="402" y="348" type="line"/>
      <point x="663" y="-12" type="line"/>
    </contour>
    <contour>
      <point x="132" y="334" type="line"/>
      <point x="144" y="334" type="line"/>
      <point x="258" y="334" type="line"/>
      <point x="258" y="357" type="line"/>
      <point x="5" y="357" type="line"/>
      <point x="5" y="334" type="line"/>
    </contour>
    <contour>
      <point x="426" y="335" type="line"/>
      <point x="603" y="335" type="line"/>
      <point x="683" y="335" type="line"/>
      <point x="683" y="357" type="line"/>
      <point x="345" y="357" type="line"/>
      <point x="345" y="335" type="line"/>
    </contour>
    <contour>
      <point x="877" y="334" type="line"/>
      <point x="888" y="334" type="line"/>
      <point x="1023" y="334" type="line"/>
      <point x="1023" y="357" type="line"/>
      <point x="769" y="357" type="line"/>
      <point x="769" y="334" type="line"/>
    </contour>
    <contour>
      <point x="515" y="523" type="move" name="top"/>
    </contour>
    <contour>
      <point x="515" y="165" type="move" name="bottom"/>
    </contour>
  </outline>
</glyph>
